<?xml version="1.0" encoding="UTF-8"?><svg id="a" xmlns="http://www.w3.org/2000/svg" viewBox="0 0 720 510.66"><defs><style>.b{fill:rgba(242, 242, 242, 0.7);}</style></defs><polygon class="b" points="36.23 308.02 62.1 302.52 62.1 429.11 98.33 421.4 98.33 168.19 719.99 36.14 719.99 0 82.59 135.4 82.59 135.57 62.1 139.92 62.1 266.51 36.23 272.01 36.23 145.43 0 153.12 0 442.31 36.23 434.61 36.23 308.02"/><path class="b" d="M217.84,297.02v-73.97c0-13.37-4.82-23.85-14.45-31.43-9.49-7.47-20.99-9.77-34.5-6.9-13.37,2.84-24.87,10.03-34.5,21.57-9.49,11.65-14.23,24.16-14.23,37.53v129.17c0,13.37,4.74,23.87,14.23,31.48,9.63,7.44,21.13,9.74,34.5,6.9,13.51-2.87,25.02-10.06,34.5-21.57,9.63-11.68,14.45-24.2,14.45-37.57v-39.47l-36.87,7.84v43.78c0,3.31-1.15,6.36-3.45,9.14-2.45,2.82-5.32,4.58-8.63,5.28-3.31,.7-6.11,.15-8.41-1.66-2.45-1.78-3.67-4.32-3.67-7.63v-59.52l61.03-12.97Zm-61.03-65.31c0-3.31,1.22-6.37,3.67-9.19,2.3-2.79,5.1-4.53,8.41-5.24,3.31-.7,6.18-.16,8.63,1.62,2.3,1.81,3.45,4.37,3.45,7.68v42.05l-24.15,5.13v-42.05Z"/><path class="b" d="M337.36,370.6V197.87c0-32.63-11.5-46.51-34.5-41.62-7.33,1.56-14.09,4.79-20.27,9.7-1.87,1.55-3.59,3.14-5.17,4.77-.58,.55-1.01,1.01-1.3,1.35-.11,.14-.17,.24-.22,.35v-5.69l-36.23,7.7v216.94l36.66-7.79V206.52c0-3.3,1.22-6.44,3.67-9.4,2.3-2.79,5.1-4.53,8.41-5.24,3.31-.7,6.18-.16,8.63,1.62,2.3,1.96,3.45,4.59,3.45,7.89v177.05l36.88-7.84Z"/><path class="b" d="M359.18,149.02v216.94l36.66-7.79V183.49c0-3.16,1.43-6.27,4.31-9.33,2.73-2.88,5.75-4.67,9.06-5.38,5.89-1.25,9.41-.99,10.57,.77v-35.58c-6.62,1.84-12.72,5-18.33,9.5-1.73,1.52-3.31,3.01-4.75,4.46-.43,.52-.79,.96-1.08,1.31-.12,.14-.17,.23-.22,.3v-8.24l-36.23,7.7Z"/><path class="b" d="M719.71,146.36v-29.33c0-13.51-4.82-23.99-14.45-31.43-9.49-7.61-20.99-9.99-34.5-7.11-13.37,2.84-24.87,10.11-34.5,21.78-9.49,11.51-14.23,24.02-14.23,37.53v34.72c0,12.37,4.17,22.33,12.51,29.91,9.63,8.73,21.35,11.64,35.15,8.7l2.37-.5c7.19-1.53,10.78,1.66,10.78,9.57v37.52c0,3.31-1.15,6.36-3.45,9.15-2.45,2.82-5.32,4.58-8.63,5.28-3.31,.7-6.11,.15-8.41-1.66-2.3-1.81-3.45-4.37-3.45-7.68v-33.64l-36.87,7.84v34.07c1.15,12.12,6.4,21.43,15.74,27.92,9.34,6.49,20.34,8.4,32.99,5.71,12.79-2.72,23.86-9.32,33.21-19.78,9.34-10.47,14.59-22.08,15.74-34.83v-40.11c-.15-1.83-.29-3.75-.43-5.73-.72-6.46-2.16-12.19-4.31-17.2-6.9-15.93-19.7-21.9-38.38-17.93l-6.9,1.47c-3.16,.67-5.82,.02-7.98-1.97-1.87-1.9-2.8-4.43-2.8-7.6v-35.37c0-3.31,1.15-6.42,3.45-9.36,2.3-2.78,5.1-4.53,8.41-5.24,3.31-.7,6.18-.16,8.63,1.62,2.3,1.96,3.45,4.59,3.45,7.89v33.64l36.88-7.84Z"/><polygon class="b" points="487.24 407.19 496.43 405.24 543.69 109.8 507.46 117.5 489.57 229.99 471.45 125.16 435.22 132.86 471.45 342.1 471.67 342.05 466.27 375.52 .47 474.52 .47 510.66 487.24 407.19 487.24 407.19"/><polygon class="b" points="539.32 359.99 534.01 397.25 720 357.72 720 321.58 539.32 359.99"/><polygon class="b" points="603.09 132.81 603.09 96.67 566.95 104.35 566.95 140.49 603.09 132.81"/></svg>