<?xml version="1.0" encoding="UTF-8"?><svg id="a" xmlns="http://www.w3.org/2000/svg" viewBox="0 0 560 622.22"><defs><style>.b{fill:rgba(242, 242, 242, 0.7);}</style></defs><path class="b" d="M478.96,247.28c-25.13,0-50.44-14.65-50.45-43.82l-.02-44.19c-.02-28.97,25.28-43.84,50.94-43.84,15.72,0,34.71,6.68,45.02,29.5l-26.38,10.7c-8.67-15.93-37.23-12.3-37.23,3.64l.02,44.19c0,15.4,28.93,19.73,35.97,1.98l28.2,13.02c-10.66,20.84-29.99,28.81-46.07,28.82m1.28,103.53l.02,50.54-32.36,.02-.02-50.54-44.67-77.68,37.59-.02,23.15,47.08,23.11-47.1,37.95-.02-44.79,77.71Zm-97.7-105.31l-.06-128.23,32.36-.02,.05,128.24h-32.35Zm-20.97,58.28l.03,97.63h-32.71l-.04-97.62-33.97,.02-.02-30.8,100.67-.05v30.8l-33.97,.02Zm-111.57,97.67l-.04-128.24,32.35-.02,.05,128.24-32.36,.02Zm-58.54,1.83c-25.12,.02-50.43-14.64-50.44-43.81l-.02-44.19c0-28.98,25.28-43.84,50.95-43.85,15.72,0,34.7,6.69,45.02,29.51l-26.38,10.69c-8.68-15.93-37.24-12.3-37.23,3.64l.02,44.19c0,15.4,28.93,19.73,35.97,1.98l28.19,13.03c-10.65,20.83-29.99,28.81-46.07,28.81m6.77-285.93l.03,85.31c.02,20.66,36.52,20.64,36.69,0l-.03-85.32h32.71l.04,85.3c-.15,60.14-102.27,60.18-102.11,.04l-.04-85.31,32.71-.02Zm119.76,77.29c-20.6-3.24-39.41-16.28-39.41-40.73,0-25.18,22.76-38.41,46.25-38.42,15.54,0,30.55,4.33,43.75,20.45l-21.14,16.3c-13.38-14.3-36.33-13.75-36.87,1.11,.37,6.16,7.05,9.78,16.99,11.95,22.78,4.15,45.55,12.11,44.11,43.63-1.06,24.81-27.09,38.41-50.58,38.42-15.37,0-31.63-7.78-43.57-23.17l20.41-19.21c12.85,15.58,41.04,16.29,41.93,2.52,.36-7.24-11.39-11.41-21.88-12.85m228.95-94.35c-11.22-33.84-31.73-62.96-66.07-79.27C433.44-1.52,376.93-2.87,325.7,2.88c-55.64,6.24-110.28,21.76-160.66,46.28-35.15,17.11-74.31,39.97-105.16,68.23l30.73,62.66,30.84-62.68h28.58l.06,128.23h-32.54l.17-36.94,1.98-25.9-1.08-.18-16.8,44.02-22.23,.02-17.19-44.01-.91,.18,2.19,25.9,.02,36.95H31.36l-.04-96.92s-.07,.08-.11,.13C15.24,170.53,1.51,196.37,.15,223.83c-2.93,59.3,36.5,115.03,71.12,159.66,36.85,47.5,79.55,90.44,126.83,127.53,51.07,40.06,106.05,75.14,164.52,103.38,17.68,8.54,37.52,10.33,56.28,4.15,28.74-9.47,40.38-33.4,52.99-58.71,14.15-28.43,26.74-57.64,37.69-87.45,28.3-77.07,47.33-159.27,49.91-241.56,1.33-42.35,.89-90-12.55-130.54"/></svg>