<?xml version="1.0" encoding="UTF-8"?><svg id="a" xmlns="http://www.w3.org/2000/svg" viewBox="0 0 720 278.98"><defs><style>.b{fill:#fff;}</style></defs><path class="b" d="M720,237.55c-30.03,29.65-66.52,41.43-106.8,41.43-36.78,0-65.62-8.17-87.62-21.87-4.88-69.39-12.69-168.93-20.15-215.06C529.39,16.9,565,0,613.2,0c38.39,0,72.98,13.3,103,42.57l-46.37,45.61c-19-18.24-38.77-23.19-56.63-23.19-51.31,0-71.45,41.81-71.07,76.4,.38,34.59,18.62,73.74,71.07,73.74,17.87,0,43.71-7.6,62.72-26.99l44.09,49.41ZM173.42,193.58c-12.8,4.38-27.48,6.92-44.19,7.1h-53.97v71.13H0V6.46H129.23c26.01,0,47.17,5.99,63.65,16.06-6.49,21.34-13.79,98.97-19.46,171.06Zm-12.64-89.06c0-17.48-11.02-33.45-31.55-33.45h-53.97v66.13h53.97c20.9,0,31.55-15.2,31.55-32.69Zm264.62-26.7v0h0Zm-156.7-.31c.06,.1,.12,.21,.18,.31h-.04c-.04-.1-.09-.21-.14-.31Zm249.15,194.22h-81.29c-4.55-66.09-9.4-126.59-14.01-171.69,1.23-2.14,2.43-4.23,3.69-6.42,36.79-64.09,48.84-76.11,51.86-78.34,.14,0,3.5-3.04,8.57-3.5,1.75,2.5,3.66,6.12,5.76,11.47,7.13,18.14,16.83,123.45,25.43,248.49ZM271.71,100.16c-4.6,45.06-9.44,105.49-14,171.58h-81.29c8.62-125.22,18.28-230.37,25.41-248.49,2.1-5.34,4.02-8.96,5.76-11.46,5.03,.48,8.37,3.49,8.51,3.49,3.02,2.23,15.07,14.25,51.86,78.34,1.28,2.23,2.5,4.35,3.75,6.53ZM474.89,7.08c-5,2.42-18.17,16.04-56.13,82.2-43.62,76-70.69,122.37-70.69,122.37h-1.87s-27.07-46.37-70.67-122.37C237.53,23.1,224.37,9.49,219.37,7.08v-.48c8.69-.03,48.58-.14,67.24-.14h.02c12.73,0,22.89,12.8,34.64,29.57,6.68,10.1,15.06,23.6,25.6,41.63l.07,.17h.38l.07-.16c10.32-17.67,18.56-30.96,25.17-41,11.95-17.08,22.2-30.2,35.09-30.2h.02s56.52,.11,67.21,.14v.48Z"/></svg>