<?xml version="1.0" encoding="UTF-8" standalone="no"?>
<!-- Created with Inkscape (http://www.inkscape.org/) -->

<svg
   version="1.1"
   id="svg9"
   xml:space="preserve"
   width="359.62186"
   height="111.8997"
   viewBox="0 0 359.62185 111.8997"
   sodipodi:docname="slavialogo.svg"
   inkscape:version="1.1.2 (b8e25be833, 2022-02-05)"
   xmlns:inkscape="http://www.inkscape.org/namespaces/inkscape"
   xmlns:sodipodi="http://sodipodi.sourceforge.net/DTD/sodipodi-0.dtd"
   xmlns="http://www.w3.org/2000/svg"
   xmlns:svg="http://www.w3.org/2000/svg"><defs
     id="defs13"><clipPath
       clipPathUnits="userSpaceOnUse"
       id="clipPath25"><path
         d="M 0,595.276 H 841.89 V 0 H 0 Z"
         id="path23" /></clipPath><clipPath
       clipPathUnits="userSpaceOnUse"
       id="clipPath77"><path
         d="M 0,595.276 H 841.89 V 0 H 0 Z"
         id="path75" /></clipPath><clipPath
       clipPathUnits="userSpaceOnUse"
       id="clipPath101"><path
         d="M 0,0 H 841.89 V 595.276 H 0 Z"
         id="path99" /></clipPath><clipPath
       clipPathUnits="userSpaceOnUse"
       id="clipPath129"><path
         d="M 0,0 H 841.89 V 595.276 H 0 Z"
         id="path127" /></clipPath><clipPath
       clipPathUnits="userSpaceOnUse"
       id="clipPath153"><path
         d="M 0,0 H 841.89 V 595.276 H 0 Z"
         id="path151" /></clipPath><clipPath
       clipPathUnits="userSpaceOnUse"
       id="clipPath181"><path
         d="M 0,0 H 841.89 V 595.276 H 0 Z"
         id="path179" /></clipPath><clipPath
       clipPathUnits="userSpaceOnUse"
       id="clipPath205"><path
         d="M 0,0 H 841.89 V 595.276 H 0 Z"
         id="path203" /></clipPath><clipPath
       clipPathUnits="userSpaceOnUse"
       id="clipPath233"><path
         d="M 0,0 H 841.89 V 595.276 H 0 Z"
         id="path231" /></clipPath></defs><sodipodi:namedview
     id="namedview11"
     pagecolor="#ffffff"
     bordercolor="#666666"
     borderopacity="1.0"
     inkscape:pageshadow="2"
     inkscape:pageopacity="0.0"
     inkscape:pagecheckerboard="0"
     showgrid="false"
     fit-margin-top="0"
     fit-margin-left="0"
     fit-margin-right="0"
     fit-margin-bottom="0"
     inkscape:zoom="1.4615069"
     inkscape:cx="-361.61307"
     inkscape:cy="28.053238"
     inkscape:window-width="2560"
     inkscape:window-height="1369"
     inkscape:window-x="-8"
     inkscape:window-y="-8"
     inkscape:window-maximized="1"
     inkscape:current-layer="g229" /><g
     id="g15"
     inkscape:groupmode="layer"
     inkscape:label="Manual_297x210_2019-1"
     transform="matrix(1.3333333,0,0,-1.3333333,-706.20518,261.05769)"><g
       id="g17"><g
         id="g19"><g
           id="g21"
           clip-path="url(#clipPath25)"><text
             transform="matrix(1,0,0,-1,697.7198,529.3701)"
             style="font-variant:normal;font-weight:normal;font-stretch:normal;font-size:12px;font-family:'Myriad Pro';-inkscape-font-specification:MyriadPro-Regular;writing-mode:lr-tb;fill:rgba(242, 242, 242, 0.7);fill-opacity:1;fill-rule:nonzero;stroke:none"
             id="text29"><tspan
               x="0 5.4959998 12.084 18.792 25.379999 29.459999 35.112 41.939999 44.484001 49.236 56.063999 62.652 65.484001 71.496002 76.872002 83.531998 90.120003 94.872002 98.844002"
               y="0"
               sodipodi:role="line"
               id="tspan27">Logotyp společnosti</tspan></text><g
             id="g31"
             transform="translate(-14.1732,609.4489)"><path
               d="m 0,0 v -103.802 h 203.191 c 0,0 10.166,0 10.166,10.166 V 0 Z"
               style="fill:rgba(242, 242, 242, 0.7);fill-opacity:1;fill-rule:nonzero;stroke:none"
               id="path33" /></g><g
             id="g35"
             transform="translate(138.726,563.4841)"><path
               d="M 0,0 H 2.119 V -19.758 H 0 v -1.851 h 10.388 v 1.851 H 8.184 V 0 h 2.204 V 1.826 H 0 Z"
               style="fill:rgba(242, 242, 242, 0.7);fill-opacity:1;fill-rule:nonzero;stroke:none"
               id="path37" /></g><path
             d="M 99.846,533.219 H 56.909 v -0.691 h 42.937 z"
             style="fill:rgba(242, 242, 242, 0.7);fill-opacity:1;fill-rule:nonzero;stroke:none"
             id="path39" /><g
             id="g41"
             transform="translate(168.9435,532.2289)"><path
               d="m 0,0 0.671,1.981 c 0.132,0.417 0.243,0.834 0.345,1.24 h 0.02 C 1.138,2.825 1.24,2.418 1.392,1.971 L 2.063,0 Z M 2.246,-0.691 2.977,-2.845 H 3.923 L 1.585,4.004 H 0.518 l -2.327,-6.849 h 0.915 l 0.711,2.154 z M -8.973,-2.845 v 2.926 c 0,1.138 -0.02,1.961 -0.071,2.825 l 0.03,0.01 C -8.668,2.174 -8.211,1.392 -7.733,0.63 l 2.174,-3.475 h 0.895 V 4.004 H -5.497 V 1.138 c 0,-1.067 0.02,-1.9 0.101,-2.815 l -0.02,-0.01 c -0.325,0.701 -0.722,1.423 -1.23,2.225 l -2.195,3.466 h -0.965 v -6.849 z m -5.853,0 2.449,6.849 h -0.945 L -14.481,0.62 c -0.304,-0.895 -0.589,-1.758 -0.782,-2.551 h -0.02 c -0.183,0.803 -0.437,1.636 -0.732,2.561 l -1.067,3.374 h -0.955 l 2.235,-6.849 z m -8.577,6.239 c 1.474,0 2.185,-1.423 2.185,-2.784 0,-1.555 -0.792,-2.846 -2.195,-2.846 -1.392,0 -2.185,1.311 -2.185,2.774 0,1.504 0.732,2.856 2.195,2.856 m 0.041,0.721 c -1.829,0 -3.181,-1.422 -3.181,-3.597 0,-2.073 1.271,-3.476 3.079,-3.476 1.748,0 3.181,1.251 3.181,3.608 0,2.032 -1.209,3.465 -3.079,3.465 m -7.286,0.254 1.047,1.159 h -0.732 l -0.64,-0.701 h -0.021 l -0.65,0.701 h -0.752 l 1.067,-1.159 z m -0.793,-7.214 h 0.894 v 6.097 h 2.094 v 0.752 h -5.071 V 3.252 h 2.083 z m -5.944,7.245 1.046,1.158 h -0.731 l -0.641,-0.701 h -0.02 l -0.65,0.701 h -0.752 L -38.066,4.4 Z m -2.541,-6.91 c 0.366,-0.244 1.087,-0.448 1.748,-0.448 1.616,0 2.398,0.925 2.398,1.982 0,1.006 -0.589,1.565 -1.747,2.012 -0.946,0.366 -1.362,0.681 -1.362,1.321 0,0.468 0.355,1.027 1.29,1.027 0.62,0 1.077,-0.204 1.301,-0.325 l 0.244,0.721 c -0.305,0.173 -0.813,0.335 -1.514,0.335 -1.331,0 -2.216,-0.792 -2.216,-1.859 0,-0.966 0.691,-1.545 1.809,-1.941 0.925,-0.356 1.291,-0.722 1.291,-1.362 0,-0.691 -0.529,-1.169 -1.433,-1.169 -0.61,0 -1.189,0.204 -1.586,0.448 z m -3.912,-0.335 h 0.884 v 6.849 h -0.884 z m -4.187,2.337 c 0,-1.342 -0.467,-1.697 -1.26,-1.697 -0.295,0 -0.559,0.061 -0.742,0.132 l -0.132,-0.722 c 0.224,-0.091 0.62,-0.163 0.945,-0.163 1.179,0 2.073,0.56 2.073,2.379 v 4.583 h -0.884 z m -7.499,3.902 c 1.473,0 2.185,-1.423 2.185,-2.784 0,-1.555 -0.793,-2.846 -2.195,-2.846 -1.393,0 -2.185,1.311 -2.185,2.774 0,1.504 0.731,2.856 2.195,2.856 m 0.04,0.721 c -1.829,0 -3.18,-1.422 -3.18,-3.597 0,-2.073 1.27,-3.476 3.079,-3.476 1.748,0 3.18,1.251 3.18,3.608 0,2.032 -1.209,3.465 -3.079,3.465 m -9.125,-0.833 c 0.152,0.041 0.447,0.071 0.833,0.071 0.976,0 1.616,-0.437 1.616,-1.341 0,-0.945 -0.65,-1.463 -1.717,-1.463 -0.295,0 -0.539,0.02 -0.732,0.071 z m -0.884,-6.127 h 0.884 v 2.743 c 0.203,-0.051 0.447,-0.061 0.712,-0.061 0.863,0 1.625,0.254 2.093,0.752 0.345,0.356 0.528,0.844 0.528,1.464 0,0.609 -0.223,1.107 -0.599,1.432 -0.407,0.366 -1.047,0.57 -1.921,0.57 -0.711,0 -1.27,-0.061 -1.697,-0.133 z"
               style="fill:rgba(242, 242, 242, 0.7);fill-opacity:1;fill-rule:nonzero;stroke:none"
               id="path43" /></g><g
             id="g45"
             transform="translate(94.2575,541.8748)"><path
               d="M 0,0 V 6.927 H -1.826 V 3.714 L -3.553,1.85 h -6.053 v 19.759 h 2.205 v 1.826 H -17.79 v -1.826 h 2.12 V 1.85 h -2.12 V 0 Z"
               style="fill:rgba(242, 242, 242, 0.7);fill-opacity:1;fill-rule:nonzero;stroke:none"
               id="path47" /></g><g
             id="g49"
             transform="translate(101.2109,541.8748)"><path
               d="m 0,0 v 1.851 h -1.763 l 1.517,4.782 H 7.745 L 9.37,1.851 H 7.418 V 0 h 9.475 V 1.851 H 15.712 L 8.142,23.435 H 4.425 3.881 3.447 L -3.634,1.851 H -4.991 V 0 Z M 3.611,18.798 7.125,8.459 H 0.332 Z"
               style="fill:rgba(242, 242, 242, 0.7);fill-opacity:1;fill-rule:nonzero;stroke:none"
               id="path51" /></g><g
             id="g53"
             transform="translate(128.4377,541.8748)"><path
               d="m 0,0 7.081,21.581 h 1.356 v 1.826 H 3.446 V 21.581 H 5.21 L -0.164,4.635 -5.923,21.581 h 1.952 v 1.826 h -9.476 v -1.826 h 1.182 L -4.7,0 Z"
               style="fill:rgba(242, 242, 242, 0.7);fill-opacity:1;fill-rule:nonzero;stroke:none"
               id="path55" /></g><g
             id="g57"
             transform="translate(156.0638,541.8816)"><path
               d="m 0,0 v 1.844 h -1.763 l 1.517,4.782 H 7.745 L 9.37,1.844 H 7.418 V 0 h 9.476 V 1.844 H 15.712 L 8.142,23.428 H 4.425 3.882 3.447 L -3.634,1.844 H -4.991 V 0 Z M 3.611,18.792 7.125,8.452 H 0.332 Z"
               style="fill:rgba(242, 242, 242, 0.7);fill-opacity:1;fill-rule:nonzero;stroke:none"
               id="path59" /></g><g
             id="g61"
             transform="translate(71.0225,555.2281)"><path
               d="m 0,0 c -2.05,0.909 -6.267,2.582 -7.721,3.422 -0.795,0.474 -1.321,1.291 -1.321,2.221 0,0.484 0.21,1.929 1.751,2.472 2.929,1.033 6.656,-1.007 7.316,-1.956 0,-0.82 -0.007,-2.482 -0.007,-2.482 h 1.983 v 6.414 H 0.031 V 9.102 C 0.027,9.098 -0.089,8.985 -0.18,8.908 c -4.336,2.619 -14.15,1.532 -14.15,-5.217 0,-1.945 0.608,-3.409 1.449,-4.504 0.62,-0.807 1.626,-1.744 3.968,-2.611 2.555,-0.946 6.546,-2.247 6.422,-4.951 0.008,-1.754 -1.636,-3.246 -3.753,-3.365 -0.326,-0.019 -0.643,0 -0.949,0.046 -2.648,0.277 -4.951,2.422 -4.951,2.422 v 2.824 h -1.958 v -6.905 h 1.957 v 1.525 c 0,0 3.412,-2.271 8.346,-1.598 1.877,0.256 4.308,1.076 5.716,2.891 C 4.144,-7.665 4.684,-2.157 0,0"
               style="fill:rgba(242, 242, 242, 0.7);fill-opacity:1;fill-rule:nonzero;stroke:none"
               id="path63" /></g></g></g></g><text
       transform="matrix(1,0,0,-1,56.6929,19.9962)"
       style="font-variant:normal;font-weight:normal;font-stretch:normal;font-size:12px;font-family:'Myriad Pro';-inkscape-font-specification:MyriadPro-Regular;writing-mode:lr-tb;fill:rgba(242, 242, 242, 0.7);fill-opacity:1;fill-rule:nonzero;stroke:none"
       id="text67"><tspan
         x="0 6.1560001"
         y="0"
         sodipodi:role="line"
         id="tspan65">11</tspan></text><g
       id="g69"><g
         id="g71"><g
           id="g73"
           clip-path="url(#clipPath77)"><g
             id="g79"
             transform="translate(523.4933,47.6664)"><path
               d="M 0,0 C 0,0 -10.604,0 -10.604,-10.604 V -61.84 H 332.57 V 0 Z"
               style="fill:#ffcd00;fill-opacity:1;fill-rule:nonzero;stroke:none"
               id="path81" /></g><text
             transform="matrix(1,0,0,-1,529.5491,19.9962)"
             style="font-variant:normal;font-weight:bold;font-stretch:normal;font-size:14.7653px;font-family:'Myriad Pro';-inkscape-font-specification:MyriadPro-Bold;writing-mode:lr-tb;fill:rgba(242, 242, 242, 0.7);fill-opacity:1;fill-rule:nonzero;stroke:none"
             id="text85"><tspan
               x="0 14.79483 27.52252 36.115925 44.945572 52.771183 58.411526 67.093521 71.168747 74.18087 83.040047 88.680389 92.755615 99.193283 104.64168 113.27938 122.13857 125.15068 133.183 136.19513 141.64352 147.11998 154.94559 163.77524 167.85045 174.53914 183.22113 187.29636 200.02405 203.03616 211.71815 220.31157 229.14122 237.82321 246.37231 251.82071 259.64633"
               y="0"
               sodipodi:role="line"
               id="tspan83">…moderní přístup k tradičním hodnotám</tspan></text></g></g></g><path
       d="M 501.945,229.717 H 841.889 V 361.418 H 501.945 Z"
       style="fill:rgba(242, 242, 242, 0.7);fill-opacity:1;fill-rule:nonzero;stroke:none"
       id="path87" /><g
       id="g89"
       transform="translate(719.9583,476.4402)"><path
         d="M 0,0 H 4.916 V -45.836 H 0 v -4.294 h 24.099 v 4.294 H 18.986 V 0 h 5.113 V 4.236 H 0 Z"
         style="fill:rgba(242, 242, 242, 0.7);fill-opacity:1;fill-rule:nonzero;stroke:none"
         id="path91" /></g><path
       d="m 629.763,406.231 h -99.608 v -1.603 h 99.608 z"
       style="fill:rgba(242, 242, 242, 0.7);fill-opacity:1;fill-rule:nonzero;stroke:none"
       id="path93" /><g
       id="g95"><g
         id="g97"
         clip-path="url(#clipPath101)"><g
           id="g103"
           transform="translate(790.0583,403.9326)"><path
             d="M 0,0 1.556,4.596 C 1.862,5.563 2.121,6.53 2.357,7.473 H 2.405 C 2.64,6.553 2.876,5.61 3.229,4.573 L 4.785,0 Z M 5.21,-1.604 6.907,-6.601 H 9.1 L 3.677,9.288 H 1.202 L -4.196,-6.601 h 2.121 l 1.65,4.997 z m -26.026,-4.997 v 6.789 c 0,2.641 -0.047,4.55 -0.165,6.554 l 0.071,0.023 c 0.802,-1.721 1.863,-3.536 2.971,-5.304 l 5.044,-8.062 h 2.075 V 9.288 h -1.933 V 2.64 c 0,-2.476 0.047,-4.408 0.235,-6.53 l -0.047,-0.023 c -0.754,1.626 -1.674,3.3 -2.852,5.162 l -5.092,8.039 h -2.24 V -6.601 Z m -13.578,0 5.681,15.889 h -2.192 l -2.688,-7.851 c -0.707,-2.074 -1.367,-4.078 -1.815,-5.916 h -0.047 c -0.424,1.862 -1.014,3.795 -1.697,5.94 l -2.476,7.827 h -2.216 l 5.186,-15.889 z M -54.291,7.873 c 3.419,0 5.068,-3.3 5.068,-6.459 0,-3.607 -1.838,-6.601 -5.092,-6.601 -3.229,0 -5.068,3.041 -5.068,6.436 0,3.489 1.697,6.624 5.092,6.624 m 0.095,1.674 c -4.244,0 -7.379,-3.301 -7.379,-8.345 0,-4.809 2.947,-8.063 7.143,-8.063 4.055,0 7.379,2.9 7.379,8.369 0,4.715 -2.806,8.039 -7.143,8.039 m -16.903,0.589 2.429,2.688 h -1.699 l -1.485,-1.627 H -71.9 l -1.509,1.627 h -1.745 l 2.475,-2.688 z m -1.839,-16.737 h 2.075 V 7.543 h 4.856 V 9.288 H -77.771 V 7.543 h 4.833 z m -13.79,16.808 2.427,2.687 h -1.696 l -1.486,-1.626 h -0.047 l -1.509,1.626 h -1.744 l 2.475,-2.687 z m -5.894,-16.03 c 0.849,-0.566 2.522,-1.038 4.055,-1.038 3.748,0 5.563,2.146 5.563,4.598 0,2.334 -1.367,3.63 -4.054,4.668 -2.193,0.848 -3.16,1.578 -3.16,3.064 0,1.084 0.825,2.381 2.994,2.381 1.439,0 2.499,-0.472 3.018,-0.754 l 0.566,1.673 c -0.707,0.401 -1.886,0.778 -3.513,0.778 -3.088,0 -5.139,-1.838 -5.139,-4.314 0,-2.239 1.603,-3.583 4.196,-4.503 2.145,-0.825 2.994,-1.673 2.994,-3.159 0,-1.602 -1.226,-2.711 -3.323,-2.711 -1.415,0 -2.759,0.472 -3.679,1.038 z m -9.076,-0.778 h 2.051 V 9.288 h -2.051 z m -9.712,5.422 c 0,-3.112 -1.085,-3.937 -2.924,-3.937 -0.684,0 -1.296,0.141 -1.721,0.307 l -0.306,-1.675 c 0.519,-0.212 1.438,-0.377 2.193,-0.377 2.734,0 4.809,1.297 4.809,5.517 V 9.288 h -2.051 z m -17.398,9.052 c 3.418,0 5.068,-3.3 5.068,-6.459 0,-3.607 -1.839,-6.601 -5.092,-6.601 -3.229,0 -5.068,3.041 -5.068,6.436 0,3.489 1.697,6.624 5.092,6.624 m 0.094,1.674 c -4.243,0 -7.378,-3.301 -7.378,-8.345 0,-4.809 2.947,-8.063 7.143,-8.063 4.055,0 7.378,2.9 7.378,8.369 0,4.715 -2.805,8.039 -7.143,8.039 m -21.169,-1.933 c 0.353,0.095 1.037,0.165 1.933,0.165 2.263,0 3.748,-1.014 3.748,-3.112 0,-2.192 -1.508,-3.394 -3.984,-3.394 -0.684,0 -1.249,0.047 -1.697,0.164 z m -2.051,-14.215 h 2.051 v 6.365 c 0.471,-0.118 1.037,-0.141 1.65,-0.141 2.004,0 3.772,0.589 4.856,1.744 0.802,0.825 1.226,1.957 1.226,3.395 0,1.414 -0.518,2.569 -1.391,3.324 -0.942,0.848 -2.427,1.32 -4.455,1.32 -1.651,0 -2.947,-0.142 -3.937,-0.307 z"
             style="fill:rgba(242, 242, 242, 0.7);fill-opacity:1;fill-rule:nonzero;stroke:none"
             id="path105" /></g></g></g><g
       id="g107"
       transform="translate(616.7977,426.3098)"><path
         d="M 0,0 V 16.07 H -4.236 V 8.617 L -8.242,4.292 H -22.284 V 50.13 h 5.115 v 4.236 H -41.271 V 50.13 h 4.918 V 4.292 h -4.918 V 0 Z"
         style="fill:rgba(242, 242, 242, 0.7);fill-opacity:1;fill-rule:nonzero;stroke:none"
         id="path109" /></g><g
       id="g111"
       transform="translate(632.9287,426.3098)"><path
         d="m 0,0 v 4.295 h -4.09 l 3.518,11.093 H 17.967 L 21.737,4.295 H 17.208 V 0 H 39.19 V 4.295 H 36.449 L 18.888,54.366 H 10.265 9.004 7.996 L -8.431,4.295 h -3.147 V 0 Z M 8.377,43.609 16.528,19.624 H 0.77 Z"
         style="fill:rgba(242, 242, 242, 0.7);fill-opacity:1;fill-rule:nonzero;stroke:none"
         id="path113" /></g><g
       id="g115"
       transform="translate(696.0909,426.3098)"><path
         d="m 0,0 16.427,50.064 h 3.146 V 54.3 H 7.995 v -4.236 h 4.093 L -0.381,10.752 -13.741,50.064 h 4.529 V 54.3 h -21.983 v -4.236 h 2.742 L -10.904,0 Z"
         style="fill:rgba(242, 242, 242, 0.7);fill-opacity:1;fill-rule:nonzero;stroke:none"
         id="path117" /></g><g
       id="g119"
       transform="translate(760.1793,426.3256)"><path
         d="m 0,0 v 4.279 h -4.09 l 3.519,11.093 H 17.968 L 21.737,4.279 H 17.208 V 0 H 39.191 V 4.279 H 36.449 L 18.888,54.35 H 10.265 9.004 7.996 L -8.431,4.279 h -3.147 V 0 Z M 8.378,43.593 16.529,19.608 H 0.77 Z"
         style="fill:rgba(242, 242, 242, 0.7);fill-opacity:1;fill-rule:nonzero;stroke:none"
         id="path121" /></g><g
       id="g123"><g
         id="g125"
         clip-path="url(#clipPath129)"><g
           id="g131"
           transform="translate(562.8959,457.2876)"><path
             d="m 0,0 c -4.755,2.108 -14.539,5.99 -17.912,7.939 -1.844,1.099 -3.065,2.994 -3.065,5.152 0,1.124 0.489,4.475 4.062,5.736 6.795,2.396 15.442,-2.338 16.972,-4.538 0,-1.903 -0.015,-5.759 -0.015,-5.759 h 4.6 V 23.411 H 0.071 v -2.297 c -0.009,-0.008 -0.277,-0.27 -0.489,-0.45 -10.059,6.077 -32.824,3.556 -32.824,-12.102 0,-4.512 1.409,-7.908 3.359,-10.449 1.439,-1.87 3.774,-4.046 9.206,-6.056 5.928,-2.194 15.186,-5.213 14.898,-11.486 0.018,-4.068 -3.795,-7.53 -8.707,-7.806 -0.756,-0.043 -1.491,10e-4 -2.201,0.106 -6.143,0.643 -11.486,5.619 -11.486,5.619 v 6.551 h -4.541 v -16.019 h 4.539 v 3.539 c 0,0 7.915,-5.27 19.361,-3.706 4.356,0.593 9.994,2.496 13.262,6.705 C 9.615,-17.782 10.867,-5.005 0,0"
             style="fill:rgba(242, 242, 242, 0.7);fill-opacity:1;fill-rule:nonzero;stroke:none"
             id="path133" /></g></g></g><text
       transform="matrix(1,0,0,-1,456.8573,440.3098)"
       style="font-variant:normal;font-weight:bold;font-stretch:normal;font-size:12px;font-family:'Myriad Pro';-inkscape-font-specification:MyriadPro-Bold;writing-mode:lr-tb;fill:#b1380b;fill-opacity:1;fill-rule:nonzero;stroke:none"
       id="text139"><tspan
         x="0 6.9120002 13.248 17.808001 24.84"
         y="0"
         sodipodi:role="line"
         id="tspan135">Černá</tspan><tspan
         x="-35.243999 -28.584 -26.16 -22.188 -19.764 -13.104 -10.68 -6.7080002 -4.2839999 2.3759999 4.8000002 8.7720003 11.196 17.856001 24.516001"
         y="14.004"
         sodipodi:role="line"
         id="tspan137">0 / 0 / 0 / 100</tspan></text><g
       id="g141"
       transform="translate(719.9583,333.8386)"><path
         d="M 0,0 H 4.916 V -45.836 H 0 v -4.294 h 24.099 v 4.294 H 18.986 V 0 h 5.113 V 4.236 H 0 Z"
         style="fill:#ffffff;fill-opacity:1;fill-rule:nonzero;stroke:none"
         id="path143" /></g><path
       d="m 629.763,263.629 h -99.608 v -1.603 h 99.608 z"
       style="fill:#ffffff;fill-opacity:1;fill-rule:nonzero;stroke:none"
       id="path145" /><g
       id="g147"><g
         id="g149"
         clip-path="url(#clipPath153)"><g
           id="g155"
           transform="translate(790.0583,261.3311)"><path
             d="M 0,0 1.556,4.596 C 1.862,5.563 2.121,6.53 2.357,7.473 H 2.405 C 2.64,6.553 2.876,5.61 3.229,4.573 L 4.785,0 Z M 5.21,-1.604 6.907,-6.601 H 9.1 L 3.677,9.288 H 1.202 L -4.196,-6.601 h 2.121 l 1.65,4.997 z m -26.026,-4.997 v 6.789 c 0,2.641 -0.047,4.55 -0.165,6.554 l 0.071,0.023 c 0.802,-1.721 1.863,-3.536 2.971,-5.304 l 5.044,-8.062 h 2.075 V 9.288 h -1.933 V 2.64 c 0,-2.476 0.047,-4.408 0.235,-6.53 l -0.047,-0.023 c -0.754,1.626 -1.674,3.3 -2.852,5.162 l -5.092,8.039 h -2.24 V -6.601 Z m -13.578,0 5.681,15.889 h -2.192 l -2.688,-7.851 c -0.707,-2.074 -1.367,-4.078 -1.815,-5.916 h -0.047 c -0.424,1.862 -1.014,3.795 -1.697,5.94 l -2.476,7.827 h -2.216 l 5.186,-15.889 z M -54.291,7.873 c 3.419,0 5.068,-3.3 5.068,-6.459 0,-3.607 -1.838,-6.601 -5.092,-6.601 -3.229,0 -5.068,3.041 -5.068,6.436 0,3.489 1.697,6.624 5.092,6.624 m 0.095,1.674 c -4.244,0 -7.379,-3.301 -7.379,-8.345 0,-4.809 2.947,-8.063 7.143,-8.063 4.055,0 7.379,2.9 7.379,8.369 0,4.715 -2.806,8.039 -7.143,8.039 m -16.903,0.589 2.429,2.688 h -1.699 l -1.485,-1.627 H -71.9 l -1.509,1.627 h -1.745 l 2.475,-2.688 z m -1.839,-16.737 h 2.075 V 7.543 h 4.856 V 9.288 H -77.771 V 7.543 h 4.833 z m -13.79,16.808 2.427,2.687 h -1.696 l -1.486,-1.626 h -0.047 l -1.509,1.626 h -1.744 l 2.475,-2.687 z m -5.894,-16.03 c 0.849,-0.566 2.522,-1.038 4.055,-1.038 3.748,0 5.563,2.146 5.563,4.598 0,2.334 -1.367,3.63 -4.054,4.668 -2.193,0.848 -3.16,1.578 -3.16,3.064 0,1.084 0.825,2.381 2.994,2.381 1.439,0 2.499,-0.472 3.018,-0.754 l 0.566,1.673 c -0.707,0.401 -1.886,0.778 -3.513,0.778 -3.088,0 -5.139,-1.838 -5.139,-4.314 0,-2.239 1.603,-3.583 4.196,-4.503 2.145,-0.825 2.994,-1.673 2.994,-3.159 0,-1.602 -1.226,-2.711 -3.323,-2.711 -1.415,0 -2.759,0.472 -3.679,1.038 z m -9.076,-0.778 h 2.051 V 9.288 h -2.051 z m -9.712,5.422 c 0,-3.112 -1.085,-3.937 -2.924,-3.937 -0.684,0 -1.296,0.141 -1.721,0.307 l -0.306,-1.675 c 0.519,-0.212 1.438,-0.377 2.193,-0.377 2.734,0 4.809,1.297 4.809,5.517 V 9.288 h -2.051 z m -17.398,9.052 c 3.418,0 5.068,-3.3 5.068,-6.459 0,-3.607 -1.839,-6.601 -5.092,-6.601 -3.229,0 -5.068,3.041 -5.068,6.436 0,3.489 1.697,6.624 5.092,6.624 m 0.094,1.674 c -4.243,0 -7.378,-3.301 -7.378,-8.345 0,-4.809 2.947,-8.063 7.143,-8.063 4.055,0 7.378,2.9 7.378,8.369 0,4.715 -2.805,8.039 -7.143,8.039 m -21.169,-1.933 c 0.353,0.095 1.037,0.165 1.933,0.165 2.263,0 3.748,-1.014 3.748,-3.112 0,-2.192 -1.508,-3.394 -3.984,-3.394 -0.684,0 -1.249,0.047 -1.697,0.164 z m -2.051,-14.215 h 2.051 v 6.365 c 0.471,-0.118 1.037,-0.141 1.65,-0.141 2.004,0 3.772,0.589 4.856,1.744 0.802,0.825 1.226,1.957 1.226,3.395 0,1.414 -0.518,2.569 -1.391,3.324 -0.942,0.848 -2.427,1.32 -4.455,1.32 -1.651,0 -2.947,-0.142 -3.937,-0.307 z"
             style="fill:#ffffff;fill-opacity:1;fill-rule:nonzero;stroke:none"
             id="path157" /></g></g></g><g
       id="g159"
       transform="translate(616.7977,283.7083)"><path
         d="M 0,0 V 16.07 H -4.236 V 8.617 L -8.242,4.292 H -22.284 V 50.13 h 5.115 v 4.236 H -41.271 V 50.13 h 4.918 V 4.292 h -4.918 V 0 Z"
         style="fill:#ffffff;fill-opacity:1;fill-rule:nonzero;stroke:none"
         id="path161" /></g><g
       id="g163"
       transform="translate(632.9287,283.7083)"><path
         d="m 0,0 v 4.295 h -4.09 l 3.518,11.093 H 17.967 L 21.737,4.295 H 17.208 V 0 H 39.19 V 4.295 H 36.449 L 18.888,54.366 H 10.265 9.004 7.996 L -8.431,4.295 h -3.147 V 0 Z M 8.377,43.609 16.528,19.624 H 0.77 Z"
         style="fill:#ffffff;fill-opacity:1;fill-rule:nonzero;stroke:none"
         id="path165" /></g><g
       id="g167"
       transform="translate(696.0909,283.7083)"><path
         d="m 0,0 16.427,50.064 h 3.146 V 54.3 H 7.995 v -4.236 h 4.093 L -0.381,10.752 -13.741,50.064 h 4.529 V 54.3 h -21.983 v -4.236 h 2.742 L -10.904,0 Z"
         style="fill:#ffffff;fill-opacity:1;fill-rule:nonzero;stroke:none"
         id="path169" /></g><g
       id="g171"
       transform="translate(760.1793,283.724)"><path
         d="m 0,0 v 4.279 h -4.09 l 3.519,11.093 H 17.968 L 21.737,4.279 H 17.208 V 0 H 39.191 V 4.279 H 36.449 L 18.888,54.35 H 10.265 9.004 7.996 L -8.431,4.279 h -3.147 V 0 Z M 8.378,43.593 16.529,19.608 H 0.77 Z"
         style="fill:#ffffff;fill-opacity:1;fill-rule:nonzero;stroke:none"
         id="path173" /></g><g
       id="g175"><g
         id="g177"
         clip-path="url(#clipPath181)"><g
           id="g183"
           transform="translate(562.8959,314.686)"><path
             d="m 0,0 c -4.755,2.108 -14.539,5.99 -17.912,7.939 -1.844,1.099 -3.065,2.994 -3.065,5.152 0,1.124 0.489,4.475 4.062,5.736 6.795,2.396 15.442,-2.338 16.972,-4.538 0,-1.903 -0.015,-5.759 -0.015,-5.759 h 4.6 V 23.411 H 0.071 v -2.297 c -0.009,-0.008 -0.277,-0.27 -0.489,-0.45 -10.059,6.077 -32.824,3.556 -32.824,-12.102 0,-4.512 1.409,-7.908 3.359,-10.449 1.439,-1.87 3.774,-4.046 9.206,-6.056 5.928,-2.194 15.186,-5.213 14.898,-11.486 0.018,-4.068 -3.795,-7.53 -8.707,-7.806 -0.756,-0.043 -1.491,10e-4 -2.201,0.106 -6.143,0.643 -11.486,5.619 -11.486,5.619 v 6.551 h -4.541 v -16.019 h 4.539 v 3.539 c 0,0 7.915,-5.27 19.361,-3.706 4.356,0.593 9.994,2.496 13.262,6.705 C 9.615,-17.782 10.867,-5.005 0,0"
             style="fill:#ffffff;fill-opacity:1;fill-rule:nonzero;stroke:none"
             id="path185" /></g></g></g><text
       transform="matrix(1,0,0,-1,467.8614,297.7082)"
       style="font-variant:normal;font-weight:bold;font-stretch:normal;font-size:12px;font-family:'Myriad Pro';-inkscape-font-specification:MyriadPro-Bold;writing-mode:lr-tb;fill:#b1380b;fill-opacity:1;fill-rule:nonzero;stroke:none"
       id="text191"><tspan
         x="0 7.2480001 10.536 13.836"
         y="0"
         sodipodi:role="line"
         id="tspan187">Bílá</tspan><tspan
         x="-32.928001 -26.268 -23.844 -19.872 -17.448 -10.788 -8.3640003 -4.3920002 -1.9680001 4.6919999 7.1160002 11.088 13.512"
         y="14.004"
         sodipodi:role="line"
         id="tspan189">0 / 0 / 0 / 0</tspan></text><g
       id="g193"
       transform="translate(719.9583,191.2371)"><path
         d="M 0,0 H 4.916 V -45.836 H 0 v -4.294 h 24.099 v 4.294 H 18.986 V 0 h 5.113 V 4.236 H 0 Z"
         style="fill:rgba(242, 242, 242, 0.7);fill-opacity:1;fill-rule:nonzero;stroke:none"
         id="path195" /></g><path
       d="m 629.763,121.027 h -99.608 v -1.603 h 99.608 z"
       style="fill:rgba(242, 242, 242, 0.7);fill-opacity:1;fill-rule:nonzero;stroke:none"
       id="path197" /><g
       id="g199"><g
         id="g201"
         clip-path="url(#clipPath205)"><g
           id="g207"
           transform="translate(790.0583,118.7295)"><path
             d="M 0,0 1.556,4.596 C 1.862,5.563 2.121,6.53 2.357,7.473 H 2.405 C 2.64,6.553 2.876,5.61 3.229,4.573 L 4.785,0 Z M 5.21,-1.604 6.907,-6.601 H 9.1 L 3.677,9.288 H 1.202 L -4.196,-6.601 h 2.121 l 1.65,4.997 z m -26.026,-4.997 v 6.789 c 0,2.641 -0.047,4.55 -0.165,6.554 l 0.071,0.023 c 0.802,-1.721 1.863,-3.536 2.971,-5.304 l 5.044,-8.062 h 2.075 V 9.288 h -1.933 V 2.64 c 0,-2.476 0.047,-4.408 0.235,-6.53 l -0.047,-0.023 c -0.754,1.626 -1.674,3.3 -2.852,5.162 l -5.092,8.039 h -2.24 V -6.601 Z m -13.578,0 5.681,15.889 h -2.192 l -2.688,-7.851 c -0.707,-2.074 -1.367,-4.078 -1.815,-5.916 h -0.047 c -0.424,1.862 -1.014,3.795 -1.697,5.94 l -2.476,7.827 h -2.216 l 5.186,-15.889 z M -54.291,7.873 c 3.419,0 5.068,-3.3 5.068,-6.459 0,-3.607 -1.838,-6.601 -5.092,-6.601 -3.229,0 -5.068,3.041 -5.068,6.436 0,3.489 1.697,6.624 5.092,6.624 m 0.095,1.674 c -4.244,0 -7.379,-3.301 -7.379,-8.345 0,-4.809 2.947,-8.063 7.143,-8.063 4.055,0 7.379,2.9 7.379,8.369 0,4.715 -2.806,8.039 -7.143,8.039 m -16.903,0.589 2.429,2.688 h -1.699 l -1.485,-1.627 H -71.9 l -1.509,1.627 h -1.745 l 2.475,-2.688 z m -1.839,-16.737 h 2.075 V 7.543 h 4.856 V 9.288 H -77.771 V 7.543 h 4.833 z m -13.79,16.808 2.427,2.687 h -1.696 l -1.486,-1.626 h -0.047 l -1.509,1.626 h -1.744 l 2.475,-2.687 z m -5.894,-16.03 c 0.849,-0.566 2.522,-1.038 4.055,-1.038 3.748,0 5.563,2.146 5.563,4.598 0,2.334 -1.367,3.63 -4.054,4.668 -2.193,0.848 -3.16,1.578 -3.16,3.064 0,1.084 0.825,2.381 2.994,2.381 1.439,0 2.499,-0.472 3.018,-0.754 l 0.566,1.673 c -0.707,0.401 -1.886,0.778 -3.513,0.778 -3.088,0 -5.139,-1.838 -5.139,-4.314 0,-2.239 1.603,-3.583 4.196,-4.503 2.145,-0.825 2.994,-1.673 2.994,-3.159 0,-1.602 -1.226,-2.711 -3.323,-2.711 -1.415,0 -2.759,0.472 -3.679,1.038 z m -9.076,-0.778 h 2.051 V 9.288 h -2.051 z m -9.712,5.422 c 0,-3.112 -1.085,-3.937 -2.924,-3.937 -0.684,0 -1.296,0.141 -1.721,0.307 l -0.306,-1.675 c 0.519,-0.212 1.438,-0.377 2.193,-0.377 2.734,0 4.809,1.297 4.809,5.517 V 9.288 h -2.051 z m -17.398,9.052 c 3.418,0 5.068,-3.3 5.068,-6.459 0,-3.607 -1.839,-6.601 -5.092,-6.601 -3.229,0 -5.068,3.041 -5.068,6.436 0,3.489 1.697,6.624 5.092,6.624 m 0.094,1.674 c -4.243,0 -7.378,-3.301 -7.378,-8.345 0,-4.809 2.947,-8.063 7.143,-8.063 4.055,0 7.378,2.9 7.378,8.369 0,4.715 -2.805,8.039 -7.143,8.039 m -21.169,-1.933 c 0.353,0.095 1.037,0.165 1.933,0.165 2.263,0 3.748,-1.014 3.748,-3.112 0,-2.192 -1.508,-3.394 -3.984,-3.394 -0.684,0 -1.249,0.047 -1.697,0.164 z m -2.051,-14.215 h 2.051 v 6.365 c 0.471,-0.118 1.037,-0.141 1.65,-0.141 2.004,0 3.772,0.589 4.856,1.744 0.802,0.825 1.226,1.957 1.226,3.395 0,1.414 -0.518,2.569 -1.391,3.324 -0.942,0.848 -2.427,1.32 -4.455,1.32 -1.651,0 -2.947,-0.142 -3.937,-0.307 z"
             style="fill:rgba(242, 242, 242, 0.7);fill-opacity:1;fill-rule:nonzero;stroke:none"
             id="path209" /></g></g></g><g
       id="g211"
       transform="translate(616.7977,141.1067)"><path
         d="M 0,0 V 16.07 H -4.236 V 8.617 L -8.242,4.292 H -22.284 V 50.13 h 5.115 v 4.236 H -41.271 V 50.13 h 4.918 V 4.292 h -4.918 V 0 Z"
         style="fill:rgba(242, 242, 242, 0.7);fill-opacity:1;fill-rule:nonzero;stroke:none"
         id="path213" /></g><g
       id="g215"
       transform="translate(632.9287,141.1067)"><path
         d="m 0,0 v 4.295 h -4.09 l 3.518,11.093 H 17.967 L 21.737,4.295 H 17.208 V 0 H 39.19 V 4.295 H 36.449 L 18.888,54.366 H 10.265 9.004 7.996 L -8.431,4.295 h -3.147 V 0 Z M 8.377,43.609 16.528,19.624 H 0.77 Z"
         style="fill:rgba(242, 242, 242, 0.7);fill-opacity:1;fill-rule:nonzero;stroke:none"
         id="path217" /></g><g
       id="g219"
       transform="translate(696.0909,141.1067)"><path
         d="m 0,0 16.427,50.064 h 3.146 V 54.3 H 7.995 v -4.236 h 4.093 L -0.381,10.752 -13.741,50.064 h 4.529 V 54.3 h -21.983 v -4.236 h 2.742 L -10.904,0 Z"
         style="fill:rgba(242, 242, 242, 0.7);fill-opacity:1;fill-rule:nonzero;stroke:none"
         id="path221" /></g><g
       id="g223"
       transform="translate(760.1793,141.1224)"><path
         d="m 0,0 v 4.279 h -4.09 l 3.519,11.093 H 17.968 L 21.737,4.279 H 17.208 V 0 H 39.191 V 4.279 H 36.449 L 18.888,54.35 H 10.265 9.004 7.996 L -8.431,4.279 h -3.147 V 0 Z M 8.378,43.593 16.529,19.608 H 0.77 Z"
         style="fill:rgba(242, 242, 242, 0.7);fill-opacity:1;fill-rule:nonzero;stroke:none"
         id="path225" /></g><g
       id="g227"><g
         id="g229"
         clip-path="url(#clipPath233)"><g
           id="g235"
           transform="translate(562.8959,172.0845)"><path
             d="m 0,0 c -4.755,2.108 -14.539,5.99 -17.912,7.939 -1.844,1.099 -3.065,2.994 -3.065,5.152 0,1.124 0.489,4.475 4.062,5.736 6.795,2.396 15.442,-2.338 16.972,-4.538 0,-1.903 -0.015,-5.759 -0.015,-5.759 h 4.6 V 23.411 H 0.071 v -2.297 c -0.009,-0.008 -0.277,-0.27 -0.489,-0.45 -10.059,6.077 -32.824,3.556 -32.824,-12.102 0,-4.512 1.409,-7.908 3.359,-10.449 1.439,-1.87 3.774,-4.046 9.206,-6.056 5.928,-2.194 15.186,-5.213 14.898,-11.486 0.018,-4.068 -3.795,-7.53 -8.707,-7.806 -0.756,-0.043 -1.491,10e-4 -2.201,0.106 -6.143,0.643 -11.486,5.619 -11.486,5.619 v 6.551 h -4.541 v -16.019 h 4.539 v 3.539 c 0,0 7.915,-5.27 19.361,-3.706 4.356,0.593 9.994,2.496 13.262,6.705 C 9.615,-17.782 10.867,-5.005 0,0"
             style="fill:rgba(242, 242, 242, 0.7);fill-opacity:1;fill-rule:nonzero;stroke:none"
             id="path237" /></g></g></g><text
       transform="matrix(1,0,0,-1,415.9021,155.1066)"
       style="font-variant:normal;font-weight:bold;font-stretch:normal;font-size:12px;font-family:'Myriad Pro';-inkscape-font-specification:MyriadPro-Bold;writing-mode:lr-tb;fill:#b1380b;fill-opacity:1;fill-rule:nonzero;stroke:none"
       id="text243"><tspan
         x="0 6.9120002 13.248 17.808001 24.84 31.176001 33.599998 38.807999 45.731998 52.728001 57.132 60.419998 65.627998"
         y="0"
         sodipodi:role="line"
         id="tspan239">Černá soutisk</tspan><tspan
         x="-14.268 -7.6079998 -0.94800001 1.476 5.448 7.8720002 14.532 21.191999 23.615999 27.587999 30.011999 36.672001 43.332001 45.756001 49.728001 52.152 58.812 65.472"
         y="14.004"
         sodipodi:role="line"
         id="tspan241">30 / 30 / 30 / 100</tspan></text><text
       transform="matrix(1,0,0,-1,56.6929,451.9666)"
       style="font-variant:normal;font-weight:bold;font-stretch:normal;font-size:21px;font-family:'Myriad Pro';-inkscape-font-specification:MyriadPro-Bold;writing-mode:lr-tb;fill:#b1380b;fill-opacity:1;fill-rule:nonzero;stroke:none"
       id="text247"><tspan
         x="0 10.542 22.722 35.007 47.124001 54.936001 65.918999 78.476997 82.719002 91.833 104.4519 116.5689 122.3439 133.4319 142.90289 155.20889 167.3259 176.4399 184.1469"
         y="0"
         sodipodi:role="line"
         id="tspan245">Logotyp společnosti</tspan></text><text
       transform="matrix(1,0,0,-1,56.6929,425.7166)"
       style="font-variant:normal;font-weight:bold;font-stretch:normal;font-size:11px;font-family:'Myriad Pro';-inkscape-font-specification:MyriadPro-Bold;writing-mode:lr-tb;fill:#b1380b;fill-opacity:1;fill-rule:nonzero;stroke:none"
       id="text251"><tspan
         x="0 6.677 12.485 16.577 22.319 28.149 34.595001 40.403 42.625 48.377998 54.186001 58.366001 61.380001 67.188004 73.568001 77.658897 83.411903 85.633904 88.658897 95.038902 101.4739 107.8209 111.9129 117.6659 124.2439 130.65691 132.87891 138.37891 140.60091 145.4398 151.2478 155.4278 161.87379 168.22079 174.7988 177.81281 180.8378"
         y="0"
         sodipodi:role="line"
         id="tspan249">Barevné varianty logotypu – černobílé</tspan></text><text
       transform="matrix(1,0,0,-1,56.6929,411.7166)"
       style="font-variant:normal;font-weight:normal;font-stretch:normal;font-size:10px;font-family:'Myriad Pro';-inkscape-font-specification:MyriadPro-Regular;writing-mode:lr-tb;fill:#b1380b;fill-opacity:1;fill-rule:nonzero;stroke:none"
       id="text265"><tspan
         x="0 5.21 8.4300003 13.97 16.51 22.25 27.790001 33.349998 37.68 40.07 43.43 45.82 48.360001 53.220001 55.757 60.227001 65.287003 68.647003 74.247002 79.787003 85.527 87.917 90.327003 95.387001 103.777 106.317 109.677 112.067 116.077 120.857 126.417 128.957 131.437 136.49699 139.037 144.77699 150.24699 155.007 160.547 162.957 168.017 173.617 178.487 181.02699 186.767 192.30701 197.867 202.127 207.187 209.72701 214.547 219.41701 222.776 225.166 230.036 235.59599 238.95599 243.826 246.366 251.226 253.76401 259.504 261.89401 264.30399 269.314"
         y="0"
         sodipodi:role="line"
         id="tspan253">Pro použití v černobílém tisku je povolena pouze varianta v bílé </tspan><tspan
         x="0 5.7399998 10.61 14.18 18.938999 23.879 25.999001 28.049 33.789001 37.148998 39.539001 45.278999 50.148998 55.839001 61.438999 66.499001 68.543999 73.403999 75.448997 81.189003 83.598999 89.198997 94.259003 102.649 104.694 110.234 115.924 119.934 123.294 125.684 131.284 136.84399 138.894 143.364 148.424 151.783 157.383 162.44299 164.493 170.233 175.103 178.673 183.653 188.02299 190.14301 192.188 197.308 202.84801 207.62801 213.188 218.87801 220.923 223.403 228.463 230.508 233.868 237.088 242.14799 247.888 252.758 254.80299 260.543 266.22"
         y="14"
         sodipodi:role="line"
         id="tspan255">barvě, případně v plném odstínu černé barvy. Pokud je třeba po-</tspan><tspan
         x="0 5.5599999 9.8900003 12.28 15.64 18.290001 22.76 27.82 31.179001 36.778999 42.319 47.879002 50.528999 56.269001 61.139 64.709 69.569 75.128998 77.778999 80.259003 85.128998 89.869003 95.408997 98.058998 102.069 104.479 109.949 114.209 119.269 124.869 130.409 135.96899 138.619 142.879 147.939 150.589 154.91901 159.789 164.69901 167.10899 171.979 177.66901 183.269 185.659 190.189 195.789 198.439 204.289 212.379 217.769 223.239 225.88901 231.629 236.49899 239.71899 244.77901 249.24899 251.369 254.019 259.759 264.629 269.319"
         y="28"
         sodipodi:role="line"
         id="tspan257">užít černou barvu jako složenou ze základních CMYK barev, pak </tspan><tspan
         x="0 2.48 7.54 10.24 15.93 20.99 26.27 31.870001 34.259998 38.73 43.790001 46.490002 51.669998 56.849998 60.330002 65.510002 70.690002 74.169998 79.349998 84.529999 88.010002 93.190002 98.370003 103.55 105.67 108.37 115 120.06 125.66 128.05 130.75 136.49001 141.96001 146.72 152.25999 154.67 159.73 165.33 170.87 173.57001 179.31 184.85001 190.41 194.74001 197.13 201.95 206.78 210.14 212.84 218.58 221.8 227.34 230.03999 234.50999 239.57001 242.92999 248.53 254.07001 259.81 262.20001 264.60999 269.32001"
         y="42"
         sodipodi:role="line"
         id="tspan259">je defnice 30/30/30/100. Není povoleno používat pro černobílý </tspan><tspan
         x="0 3.3599999 5.75 9.7600002 14.5 18.1 20.58 22.969999 28.57 34.110001 39.669998 43.27 48.869999 53.93 58.259998 61.860001 67.419998 72.18 77.239998 82.93 87.989998 93.589996 99.129997 104.69 108.29 114.03 118.9 122.12 127.18 132.03999 137.64 143.17999 147.19 150.52 152.64 156.24001 161.82001 166.69 171.61 176.48 180.81 185.67999 191.28 196.82001 200.42 202.89999 207.96001 211.56 214.92 219.78999 224.53 228.13 233.87 239.41 244.97 249.3 251.69 256.51001 261.38 266.98001 269.32001"
         y="56"
         sodipodi:role="line"
         id="tspan261">tisk jinou než uvedenou barevnost. Zakázáno je tak používání </tspan><tspan
         x="0 2.48 4.8699999 10.47 15.53 21.129999 26.67 28.84 34.380001 40.07 44.080002 47.439999 49.830002 55.43 60.990002 65.330002 67.739998 73.279999 78.919998 84.459999 87.910004 92.669998 98.410004 103.97 106.14 111.74 116.8 121.13 123.3 129.03999 131.42999 133.84 138.78 140.89999 143.07001 148.81 152.17 154.56 160.3 165.17 170.86 176.46001 181.52 183.69 188.87 194.05 199.23 200.53 208.5 210.67 215.14 220.2 223.55901 229.159 234.21899 236.38901 242.129 246.99899 250.569 255.548 259.918"
         y="70"
         sodipodi:role="line"
         id="tspan263">jiného odstínu logotypu než bílé, případně 100 % černé barvy.</tspan></text></g></svg>
