<?xml version="1.0" encoding="UTF-8"?><svg id="a" xmlns="http://www.w3.org/2000/svg" viewBox="0 0 1200 210.53"><defs><style>.b{fill:rgba(242, 242, 242, 0.7);}</style></defs><path class="b" d="M1151.38,181.65c10.19,0,18.98-7.41,18.98-17.76s-8.95-16.57-19.12-17.73l-38.65-4.5c-23.83-2.73-44.78-20.69-44.78-45.45,0-26.11,22.2-45.12,47.97-45.12h73.34v27.4h-72.75c-10.25,0-18.93,7.29-18.93,17.71s9.94,17.25,19.7,18.36l39.01,4.5c24.52,2.79,43.83,19.75,43.83,44.81s-22.45,45.16-48.03,45.16h-78.56v-27.4h77.97ZM916.52,51.1v103.33c0,32.48,27.32,56.1,58.98,56.1h11.43c31.67,0,59.09-23.57,59.09-56.1V51.1h-29.05v103.33c0,16.49-14.03,28.38-30.04,28.38h-11.43c-16.03,0-29.93-11.9-29.93-28.38V51.1h-29.05Zm-612.32,0v103.33c0,32.48,27.32,56.1,58.98,56.1h11.43c31.67,0,59.09-23.57,59.09-56.1V51.1h-29.05v103.33c0,16.49-14.03,28.38-30.04,28.38h-11.43c-16.03,0-29.94-11.9-29.94-28.38V51.1h-29.05ZM83.57,181.71c10.19,0,18.98-7.45,18.98-17.86s-8.95-16.66-19.12-17.83l-38.65-4.53C20.95,138.75,0,120.69,0,95.79c0-26.26,22.2-45.37,47.97-45.37H121.32v27.56H48.57c-10.25,0-18.92,7.33-18.92,17.81s9.94,17.35,19.7,18.47l39.01,4.53c24.52,2.8,43.83,19.86,43.83,45.07s-22.45,45.42-48.03,45.42H5.6v-27.56H83.57ZM793.16,113.29h71.41v-9.14c0-16.53-14.03-28.48-30.1-28.48h-11.27c-16.04,0-30.04,12-30.04,28.48v9.14Zm30.04-63.72h11.27c31.7,0,59.14,22.04,59.14,54.58v10.09c0,15.36-11.98,25.27-26.85,25.27h-73.6v13.33c0,16.49,14.02,28.37,30.04,28.37l62.92-.02v27.72c-20.97,.08-41.95,.01-62.92,.01-31.6,0-59.09-23.66-59.09-56.1v-48.69c0-32.52,27.4-54.58,59.09-54.58Zm-140.95,133.24c16.04,0,30.09-11.85,30.09-28.38v-48.69c0-16.64-14.12-28.48-30.09-28.48h-11.38c-16.07,0-30.09,11.95-30.09,28.48v48.69c0,16.53,14.05,28.38,30.09,28.38h11.38ZM741.39,0V154.43c0,32.56-27.45,56.1-59.14,56.1h-11.38c-31.63,0-59.14-23.61-59.14-56.1v-48.69c0-32.49,27.5-56.2,59.14-56.2h4.74c13.63,0,25.97,4,36.73,12.39V0h29.05ZM208.36,77.26c-16.06,0-29.93,12.01-29.93,28.48v48.69c0,16.47,13.9,28.38,29.93,28.38h11.43c16.01,0,30.04-11.89,30.04-28.38v-48.69c0-16.48-14-28.48-30.04-28.48h-11.43Zm0-27.72h11.43c31.7,0,59.09,23.68,59.09,56.2v48.69c0,32.77-27.61,56.1-59.09,56.1h-11.43c-31.67,0-58.98-23.62-58.98-56.1v-48.69c0-32.55,27.23-56.2,58.98-56.2Zm379.74,159.4V105.64c0-32.48-27.32-56.1-58.98-56.1h-11.43c-31.67,0-59.09,23.57-59.09,56.1v103.3h29.05V105.64c0-16.49,14.03-28.38,30.04-28.38h11.43c16.03,0,29.94,11.9,29.94,28.38v103.3h29.05Z"/></svg>