<?xml version="1.0" encoding="UTF-8"?><svg id="a" xmlns="http://www.w3.org/2000/svg" viewBox="0 0 1080 227.71"><defs><style>.b{fill:rgba(242, 242, 242, 0.7);fill-rule:evenodd;}</style></defs><path class="b" d="M186.68,.39L118.25,171.19,49.52,.39H0L94.08,227.71h48.23L236.3,.39h-49.62Zm113.89,0V227.51h-42.98V.19l42.98,.2Zm221.89,42.82h-120.97c-5.78,.04-11.33,2.31-15.48,6.36-4.14,4.04-6.57,9.54-6.76,15.33,0,13.45,12.53,20.39,24.51,22.18l72.54,9.92c33.03,4.52,59.42,30.67,59.42,65.45,.03,17.18-6.73,33.68-18.78,45.89-12.06,12.21-28.45,19.15-45.59,19.31h-124.98v-42.92h123.55c5.9-.09,11.54-2.48,15.71-6.67,4.17-4.19,6.55-9.84,6.62-15.76,0-13.25-11.79-21.68-23.72-23.32l-75.22-10.42c-33.28-4.96-57.39-28.78-57.39-63.81,0-17.11,6.78-33.52,18.85-45.61C366.85,7.03,383.23,.24,400.3,.24h122.36l-.2,42.97Zm244.07,32.55l.94-1.34L820.8,.39h53.18l-80.76,112.15,82.6,114.97h-53.03l-55.81-77.61-.3-.45-.15-73.69ZM689.63,.39l54.17,75.38v73.49l-56.1,78.25h-53.03l82.55-114.97L636.45,.39h53.18Zm346.62,125.69l-87.84,8.93c-6.33,.47-12.24,3.36-16.51,8.07-4.27,4.71-6.57,10.88-6.42,17.24,0,18.91,16.64,24.81,32.78,24.81h78.24l-.25-59.05Zm-138.1,81.58c-14.85-15.48-19.81-39.99-16.44-60.69,4.51-26.25,25.55-50.66,67.84-54.59l87-7.64v-20.94c-.42-5.89-3.13-11.39-7.54-15.3-4.42-3.91-10.19-5.94-16.08-5.64h-113.59l.25-42.77h88.34c22.48,0,43.03-1.54,60.66,8.14,22.83,12.55,32.88,34.19,31.25,59.55V227.06h-110.13c-26.34,.15-51.84,1.59-71.55-19.4ZM612.53,.39V227.51h-43.13V.39h43.13Z"/></svg>