<?xml version="1.0" encoding="UTF-8" standalone="no"?>
<!-- Created with Inkscape (http://www.inkscape.org/) -->

<svg
   version="1.1"
   id="svg4458"
   xml:space="preserve"
   width="395.38531"
   height="110.724"
   viewBox="0 0 395.38532 110.724"
   sodipodi:docname="vsemlogo.svg"
   inkscape:version="1.1.2 (b8e25be833, 2022-02-05)"
   xmlns:inkscape="http://www.inkscape.org/namespaces/inkscape"
   xmlns:sodipodi="http://sodipodi.sourceforge.net/DTD/sodipodi-0.dtd"
   xmlns="http://www.w3.org/2000/svg"
   xmlns:svg="http://www.w3.org/2000/svg"><defs
     id="defs4462"><clipPath
       clipPathUnits="userSpaceOnUse"
       id="clipPath4480"><path
         d="M 0.014984,623.61 H 737.00798 V 0 H 0.014984 Z"
         id="path4478" /></clipPath><clipPath
       clipPathUnits="userSpaceOnUse"
       id="clipPath4508"><path
         d="M 0.014984,623.61 H 737.00798 V 0 H 0.014984 Z"
         id="path4506" /></clipPath><clipPath
       clipPathUnits="userSpaceOnUse"
       id="clipPath4592"><path
         d="m 511.864,346.118 v -65.619 h 110.682 v 65.619 H 511.864"
         id="path4590" /></clipPath><clipPath
       clipPathUnits="userSpaceOnUse"
       id="clipPath4616"><path
         d="m 212.029,180.068 v -56.304 h 94.968 v 56.304 h -94.968"
         id="path4614" /></clipPath><clipPath
       clipPathUnits="userSpaceOnUse"
       id="clipPath4628"><path
         d="m 224.08,355.154 h -1.692 v 4.977 h 1.692 v -4.977"
         id="path4626" /></clipPath><clipPath
       clipPathUnits="userSpaceOnUse"
       id="clipPath4640"><path
         d="m 254.968,259.718 h -25.956 v 7.047 h 25.956 v -7.047"
         id="path4638" /></clipPath><clipPath
       clipPathUnits="userSpaceOnUse"
       id="clipPath4656"><path
         d="m 254.968,259.718 h -25.956 v 7.047 h 25.956 v -7.047"
         id="path4654" /></clipPath><clipPath
       clipPathUnits="userSpaceOnUse"
       id="clipPath4668"><path
         d="m 405.493,260.465 h -27.009 v 6.3 h 27.009 v -6.3"
         id="path4666" /></clipPath><clipPath
       clipPathUnits="userSpaceOnUse"
       id="clipPath4684"><path
         d="m 405.493,260.465 h -27.009 v 6.3 h 27.009 v -6.3"
         id="path4682" /></clipPath><clipPath
       clipPathUnits="userSpaceOnUse"
       id="clipPath4696"><path
         d="m 577.492,260.465 h -15.255 v 6.3 h 15.255 v -6.3"
         id="path4694" /></clipPath><clipPath
       clipPathUnits="userSpaceOnUse"
       id="clipPath4712"><path
         d="m 577.492,260.465 h -15.255 v 6.3 h 15.255 v -6.3"
         id="path4710" /></clipPath><clipPath
       clipPathUnits="userSpaceOnUse"
       id="clipPath4724"><path
         d="m 224.935,220.73 h -2.898 v 5.031 h 2.898 v -5.031"
         id="path4722" /></clipPath></defs><sodipodi:namedview
     id="namedview4460"
     pagecolor="#ffffff"
     bordercolor="#666666"
     borderopacity="1.0"
     inkscape:pageshadow="2"
     inkscape:pageopacity="0.0"
     inkscape:pagecheckerboard="0"
     showgrid="false"
     fit-margin-top="0"
     fit-margin-left="0"
     fit-margin-right="0"
     fit-margin-bottom="0"
     inkscape:zoom="2.9696077"
     inkscape:cx="13.97491"
     inkscape:cy="66.001983"
     inkscape:window-width="2560"
     inkscape:window-height="1369"
     inkscape:window-x="-8"
     inkscape:window-y="-8"
     inkscape:window-maximized="1"
     inkscape:current-layer="g4578" /><g
     id="g4464"
     inkscape:groupmode="layer"
     inkscape:label="manual_loga_komplet-vsem"
     transform="matrix(1.3333333,0,0,-1.3333333,-283.42266,482.10532)"><g
       id="g4466"
       transform="translate(680.759,30.926)"><path
         d="m 0,0 h 6.037 l -7.91,19.156 H -7.738 L 0,0"
         style="fill:rgba(128, 128, 128, 0.7);fill-opacity:1;fill-rule:nonzero;stroke:none"
         id="path4468" /></g><text
       transform="matrix(1,0,0,-1,701.0762,34.0158)"
       style="font-variant:normal;font-weight:300;font-size:12px;font-family:DINCE;-inkscape-font-specification:DINCE-Light;writing-mode:lr-tb;fill:rgba(128, 128, 128, 0.7);fill-opacity:1;fill-rule:nonzero;stroke:none"
       id="text4472"><tspan
         x="0"
         y="0"
         id="tspan4470">2</tspan></text><g
       id="g4474"><g
         id="g4476"
         clip-path="url(#clipPath4480)"><path
           d="m 696.614,536.312 h 40.394 v 87.298 h -40.394 z"
           style="fill:rgba(128, 128, 128, 0.7);fill-opacity:1;fill-rule:nonzero;stroke:none"
           id="path4482" /><path
           d="m 697.015,358.138 h 39.993 v 174.803 h -39.993 z"
           style="fill:rgba(128, 128, 128, 0.7);fill-opacity:1;fill-rule:nonzero;stroke:none"
           id="path4484" /></g></g><g
       id="g4486"
       transform="translate(698.755,532.691)"><path
         d="M 0,0 H -12.771"
         style="fill:none;stroke:rgba(128, 128, 128, 0.7);stroke-width:0.5;stroke-linecap:butt;stroke-linejoin:miter;stroke-miterlimit:4;stroke-dasharray:none;stroke-opacity:1"
         id="path4488" /><g
         id="g4490"
         transform="translate(0,3.871)"><path
           d="M 0,0 H -12.771"
           style="fill:none;stroke:rgba(128, 128, 128, 0.7);stroke-width:0.5;stroke-linecap:butt;stroke-linejoin:miter;stroke-miterlimit:4;stroke-dasharray:none;stroke-opacity:1"
           id="path4492" /></g></g><text
       transform="matrix(1,0,0,-1,428.1422,581.1821)"
       style="font-variant:normal;font-weight:300;font-size:6px;font-family:DINCE;-inkscape-font-specification:DINCE-Light;writing-mode:lr-tb;fill:rgba(128, 128, 128, 0.7);fill-opacity:1;fill-rule:nonzero;stroke:none"
       id="text4496"><tspan
         x="0 3.204 6.1680002 9.6899996 13.602 17.472 21.084 22.614 26.136 29.945999 33.858002 37.290001 40.902 42.431999 46.02 49.830002 53.742001 58.175999 62.088001 66.996002 68.639999 72.227997 73.758003 77.370003 78.900002 83.807999 87.419998 91.853996 95.405998 99.311996 102.9 107.808 111.396 115.83 119.064 123.192 126.252 128.28"
         y="0"
         sodipodi:role="line"
         id="tspan4494">VYSOKÁ ŠKOLA EKONOMIE A MANAGEMENTU \ </tspan></text><text
       transform="matrix(1,0,0,-1,559.4804,581.1821)"
       style="font-variant:normal;font-weight:500;font-size:6px;font-family:DINCE;-inkscape-font-specification:DINCE-Medium;writing-mode:lr-tb;fill:rgba(128, 128, 128, 0.7);fill-opacity:1;fill-rule:nonzero;stroke:none"
       id="text4500"><tspan
         x="0 4.8779998 8.6280003 12.96 17.01 20.76 24.204 25.643999 28.68 32.298 36.293999 40.625999 44.382 47.742001 52.074001 55.692001 59.838001 63.714001 65.153999 68.538002 70.302002 73.613998 77.664001 81.414001 84.858002 89.190002 90.954002 95.099998 98.975998 100.416 103.956 107.316 110.58 113.952"
         y="0"
         sodipodi:role="line"
         id="tspan4498">MANUÁL JEDNOTNÉHO VIZUÁLNÍHO STYLU</tspan></text><g
       id="g4502"><g
         id="g4504"
         clip-path="url(#clipPath4508)"><g
           id="g4510"
           transform="translate(50.173,532.691)"><path
             d="M 0,0 H -50.173"
             style="fill:none;stroke:rgba(128, 128, 128, 0.7);stroke-width:0.5;stroke-linecap:butt;stroke-linejoin:miter;stroke-miterlimit:4;stroke-dasharray:none;stroke-opacity:1"
             id="path4512" /><g
             id="g4514"
             transform="translate(72.73,3.871)"><path
               d="M 0,0 H -122.903"
               style="fill:none;stroke:rgba(128, 128, 128, 0.7);stroke-width:0.5;stroke-linecap:butt;stroke-linejoin:miter;stroke-miterlimit:4;stroke-dasharray:none;stroke-opacity:1"
               id="path4516" /></g></g></g></g><g
       id="g4518"
       transform="translate(192.446,536.788)"><path
         d="M 0,0 H 5.675 L -1.762,18.009 H -7.275 L 0,0"
         style="fill:rgba(128, 128, 128, 0.7);fill-opacity:1;fill-rule:nonzero;stroke:none"
         id="path4520" /></g><text
       transform="matrix(1,0,0,-1,212.0702,535.9472)"
       style="font-variant:normal;font-weight:bold;font-size:18px;font-family:DINCE;-inkscape-font-specification:DINCE-Bold;writing-mode:lr-tb;fill:rgba(242, 242, 242, 0.7);fill-opacity:1;fill-rule:nonzero;stroke:none"
       id="text4524"><tspan
         x="0 9.8640003 20.177999 29.790001 38.43 48.492001 58.104 62.279999 68.328003 73.818001 83.592003 93.582001 103.356"
         y="0"
         sodipodi:role="line"
         id="tspan4522">Značka (logo)</tspan></text><text
       transform="matrix(1,0,0,-1,212.1042,515.9542)"
       style="font-variant:normal;font-weight:normal;font-size:9px;font-family:DINCE;-inkscape-font-specification:DINCE-Regular;writing-mode:lr-tb;fill:#908d6c;fill-opacity:1;fill-rule:nonzero;stroke:none"
       id="text4528"><tspan
         x="0 5.0040002 10.062 14.796 19.205999 24.030001 28.764 31.004999 35.918999 41.210999 46.611 53.955002 56.195999 58.473 63.243 65.484001 70.542 75.276001 79.299004 83.087997 87.219002 91.988998 97.046997 101.781 104.022 106.299 111.033 115.677 120.447"
         y="0"
         sodipodi:role="line"
         id="tspan4526">Značka VŠEM je navržena jako </tspan></text><text
       transform="matrix(1,0,0,-1,334.7904,515.9542)"
       style="font-variant:normal;font-weight:bold;font-size:9px;font-family:DINCE;-inkscape-font-specification:DINCE-Bold;writing-mode:lr-tb;fill:#908d6c;fill-opacity:1;fill-rule:nonzero;stroke:none"
       id="text4534"><tspan
         x="0 4.158 9.0900002 11.79 16.722 21.753 23.841 28.35 33.282001 37.701 40.868999 45.674999 50.021999 54.827999 57.303001 59.778 64.098 66.572998"
         y="0"
         sodipodi:role="line"
         id="tspan4530">celek sestávající </tspan><tspan
         x="-122.6862 -118.3842 -113.4522 -111.3642 -108.1962 -104.1012 -101.6262"
         y="12.0006"
         sodipodi:role="line"
         id="tspan4532">ze tří </tspan></text><text
       transform="matrix(1,0,0,-1,235.2522,503.9536)"
       style="font-variant:normal;font-weight:normal;font-size:9px;font-family:DINCE;-inkscape-font-specification:DINCE-Regular;writing-mode:lr-tb;fill:#908d6c;fill-opacity:1;fill-rule:nonzero;stroke:none"
       id="text4538"><tspan
         x="0 4.0229998 8.1540003 12.888 15.165 19.934999 27.846001 32.903999 37.674 39.915001 44.82 48.303001 52.983002 57.006001 61.740002 65.871002 70.605003 75.663002 79.685997 84.096001 89.153999"
         y="0"
         sodipodi:role="line"
         id="tspan4536">vzájemně provázaných </tspan></text><text
       transform="matrix(1,0,0,-1,326.6463,503.9536)"
       style="font-variant:normal;font-weight:bold;font-size:9px;font-family:DINCE;-inkscape-font-specification:DINCE-Bold;writing-mode:lr-tb;fill:#908d6c;fill-opacity:1;fill-rule:nonzero;stroke:none"
       id="text4542"><tspan
         x="0 4.3200002 9.1260004 13.545 16.712999"
         y="0"
         sodipodi:role="line"
         id="tspan4540">částí</tspan></text><text
       transform="matrix(1,0,0,-1,345.8334,503.9536)"
       style="font-variant:normal;font-weight:normal;font-size:9px;font-family:DINCE;-inkscape-font-specification:DINCE-Regular;writing-mode:lr-tb;fill:#908d6c;fill-opacity:1;fill-rule:nonzero;stroke:none"
       id="text4564"><tspan
         x="0 2.4300001 4.671 10.341 14.13 18.153 23.211 25.488001 27.729 32.139 36.873001 41.247002 44.235001 46.512001"
         y="0"
         sodipodi:role="line"
         id="tspan4544">. První částí </tspan><tspan
         x="-133.7292 -131.45219 -126.6822 -124.4412 -119.9772 -115.9542 -108.0432 -103.1382 -98.368202 -95.695198 -93.319199 -91.078201 -86.173203 -82.384201 -77.326202 -72.268204 -67.498199 -62.440201 -60.1992 -55.7892 -51.055199 -46.681198 -43.693199 -41.416199 -39.175201 -34.270199 -29.5362 -24.7122 -22.471201 -18.3402 -13.5162 -9.8171997 -5.0832 -2.0952001 2.7288001 7.4628 9.7038002 14.6178 19.9098 25.309799 32.653801"
         y="11.9997"
         sodipodi:role="line"
         id="tspan4546">je symbol, druhou částí pak zkratka VŠEM </tspan><tspan
         x="-133.7292 -128.99519 -126.7542 -123.7662 -120.2562 -115.4862 -112.4982 -110.2212 -107.9802 -103.5702 -98.836197 -94.462196 -91.474197 -89.197197 -86.9562 -84.679199 -79.909203 -77.668198 -74.752197 -70.126198 -65.824203 -62.836201 -60.5952 -55.681198 -51.055199 -45.763199 -39.9132 -34.063202 -28.564199 -26.3232 -21.0312 -15.2712 -9.4211998 -4.2642002 1.2348 3.4758 8.8758001 14.6358 20.4858 27.073799 32.923801 40.267799 42.805801 48.205799"
         y="23.999399"
         sodipodi:role="line"
         id="tspan4548">a třetí částí je text VYSOKÁ ŠKOLA EKONOMIE </tspan><tspan
         x="-133.7292 -128.23019 -125.9892 -118.6452 -113.1462 -106.5582 -101.1492 -95.299202 -89.8992 -82.555199 -77.155197 -70.5672 -65.635201 -59.488201 -57.2472 -52.189201 -44.278198 -42.001202 -37.627201 -34.639198 -29.8692 -24.811199 -20.7882 -18.547199 -14.6142 -9.8442001 -7.6032 -3.1932001 -0.2052 3.8178 7.3277998 12.0978 16.507799 21.5658 23.806801 27.5058 32.239799 37.144798 41.554798 43.831799 48.241798 53.299801"
         y="35.9991"
         sodipodi:role="line"
         id="tspan4550">A MANAGEMENTU umístěný ve čtyřech řádcích </tspan><tspan
         x="-133.7292 -128.6712 -123.9372 -119.0322 -116.7912 -112.3272 -107.5572 -102.6522 -97.882202 -92.824203 -90.583199 -85.669197 -83.4282 -79.297203 -74.563202 -69.739197 -67.0662 -62.332199 -57.4272 -52.369202 -50.092201 -42.181198 -39.940201 -35.8092 -31.0392 -26.134199 -22.4352 -17.7012 -13.5702 -8.8002005 -3.7421999 -1.4651999 0.77579999 3.4577999 8.1557999 10.8378 13.0788 15.3558 20.125799 22.3668 26.830799 30.8538 38.764801 43.6698 48.4398 51.112801"
         y="47.998798"
         sodipodi:role="line"
         id="tspan4552">nad sebou V základním zobrazení (1) je symbol </tspan><tspan
         x="-133.7292 -128.6712 -120.7602 -118.4832 -114.1092 -111.1212 -106.3512 -101.2932 -99.0522 -95.029198 -92.5812 -87.901199 -83.968201 -79.198196 -76.822197 -74.5812 -70.648201 -65.878197 -60.973202 -58.5252 -53.755199 -51.514198 -46.4562 -41.686199 -36.628201 -31.8582 -29.617201 -24.7122 -19.978201 -15.1542 -12.9132 -8.7821999 -3.9582 -0.25920001 4.4748001 7.4628 12.2868 17.0208 19.261801 23.9958 26.236799 30.3678 34.642799 39.4128 42.0858 46.819801"
         y="59.998501"
         sodipodi:role="line"
         id="tspan4554">umístěn vlevo, vedle něho pak zkratka a zcela </tspan><tspan
         x="77.6754 81.698402 86.603401 90.302399 95.0364 98.969398 103.7394 105.9804 108.8964 113.5224 117.8244 120.8124 123.2424 125.4834 130.77541 134.7984 142.7094 147.6144 152.3844 155.0574 157.2984 161.76241 166.53239 171.59039 176.0004 180.73441 185.19839 190.25639 195.0264 197.2674 201.7314 206.5014 208.7424 212.8734 217.6974 221.39639 226.1304 229.11839 233.76241 238.53239 243.59039 245.83141 253.7424 258.80042 262.9314 267.70139"
         y="-12.0015"
         sodipodi:role="line"
         id="tspan4556">vpravo text. Symbol současně se zkratkou může </tspan><tspan
         x="77.6754 82.580399 86.603401 89.5914 91.832397 96.890404 101.0214 103.2984 107.3214 112.0554 117.1134 119.3544 123.8184 128.5524 136.46339 141.2334 145.60741 148.52341 153.2574 156.24541 161.30341 166.07339 168.31441 172.7784 175.01939 177.93539 182.5614 186.8634 189.7794 194.54939 202.4604 204.7014 209.7594 217.67039 219.9474 224.3214 227.3094 232.07941 237.13741 241.1604 249.0714 251.31239 256.21741 260.9874 263.43539 268.20541"
         y="-0.00089999998"
         sodipodi:role="line"
         id="tspan4558">být užíván samostatně s textem umístěným dole </tspan><tspan
         x="77.6754 80.357399 85.055397 87.737396 90.113403 92.354401 97.412399 102.1824 107.0874 111.8574 114.0984 118.2294 122.5044 127.2744 129.9474 134.6814 136.92239 141.82739 146.5974 150.72839 152.96941 155.88541 160.5114 164.8134 167.80141 172.85941 175.2894 177.5304 182.53439 187.3584 191.0574 195.7914 198.7794 203.60339 208.3374 210.5784 215.4834 219.50639 221.74741 226.8054 231.57539 239.4864 244.25639 246.9294 251.66341 253.9044 258.80939 262.8324 265.8204"
         y="11.9997"
         sodipodi:role="line"
         id="tspan4560">(2), nebo zcela bez textu. Zkratka by neměla být </tspan><tspan
         x="77.6754 82.733398 86.864403 89.141403 93.164398 97.898399 102.9564 107.6904 109.9314 114.8364 119.6064 123.7374 125.9784 130.4424 134.46539 142.3764 147.2814 152.05141 154.7244 159.78239 162.2124"
         y="24.000299"
         sodipodi:role="line"
         id="tspan4562">užívána bez symbolu. </tspan></text><text
       transform="matrix(0,1,1,0,714.4462,372.2838)"
       style="font-variant:normal;font-weight:500;font-size:9px;font-family:DINCE;-inkscape-font-specification:DINCE-Medium;writing-mode:lr-tb;fill:#ffffff;fill-opacity:1;fill-rule:nonzero;stroke:none"
       id="text4568"><tspan
         x="0 4.9679999 11.466 17.000999 22.653 28.575001"
         y="0"
         sodipodi:role="line"
         id="tspan4566">ZNAČKA</tspan></text><text
       transform="matrix(0,1,1,0,716.7982,560.9678)"
       style="font-variant:normal;font-weight:500;font-size:18px;font-family:DINCE;-inkscape-font-specification:DINCE-Medium;writing-mode:lr-tb;fill:#ffffff;fill-opacity:1;fill-rule:nonzero;stroke:none"
       id="text4572"><tspan
         x="0 11.25 16.254 25.848"
         y="0"
         sodipodi:role="line"
         id="tspan4570">A.01</tspan></text><g
       id="g4574"
       transform="translate(350.861,361.579)"><path
         d="M 0,0 14.689,-3.822 29.378,0 V -11.573 L 14.689,-15.395 0,-11.573 Z m 36.893,-22.091 v -12.561 c -8.596,3.832 -15.433,5.763 -20.531,5.763 -2.912,0 -5.224,-0.486 -6.933,-1.461 -1.725,-0.958 -2.58,-2.245 -2.58,-3.831 0,-1.241 0.619,-2.404 1.852,-3.502 1.233,-1.097 4.258,-2.527 9.039,-4.285 4.796,-1.743 8.629,-3.363 11.508,-4.868 2.878,-1.505 5.349,-3.626 7.44,-6.343 2.089,-2.731 3.134,-6.186 3.134,-10.362 0,-5.936 -2.279,-10.677 -6.839,-14.21 -4.559,-3.516 -10.574,-5.292 -18.013,-5.292 -8.042,0 -15.83,2.074 -23.381,6.219 v 13.848 c 4.338,-2.889 8.17,-4.994 11.508,-6.312 3.339,-1.318 6.871,-1.979 10.622,-1.979 6.332,0 9.498,1.979 9.498,5.936 0,1.35 -0.633,2.622 -1.9,3.815 -1.266,1.209 -4.321,2.653 -9.165,4.381 -4.828,1.711 -8.659,3.313 -11.492,4.773 -2.834,1.475 -5.273,3.582 -7.329,6.311 -2.056,2.731 -3.087,6.218 -3.087,10.488 0,13.288 13.281,18.45 24.726,18.45 6.916,0 14.23,-1.666 21.923,-4.978 z M 87.64,-69.534 v -11.57 H 41.731 v 63.14 H 87.64 v -11.57 H 57.451 v -13.251 h 24.061 v -11.57 H 57.451 v -15.179 z m 36.621,28.153 20.301,23.417 h 13.683 v -63.14 h -15.72 v 39.414 l -17.046,-19.807 h -2.391 L 106.057,-41.69 V -81.104 H 90.323 v 63.14 h 13.698 l 20.24,-23.417"
         style="fill:rgba(242, 242, 242, 0.7);fill-opacity:1;fill-rule:evenodd;stroke:none"
         id="path4576" /></g><g
       id="g4578"
       transform="translate(269.978,343.613)"><path
         d="m 0,0 h -57.411 v -63.118 h 38.269 l -4.709,11.414 h -22.146 v 40.29 h 40.29 v -24.444 l 11.174,-27.26 h 0.24 L 5.707,0 Z m -13.011,-63.118 h 12.872 l -16.867,40.846 h -12.505 l 16.5,-40.846"
         style="fill:rgba(128, 128, 128, 0.7);fill-opacity:1;fill-rule:nonzero;stroke:none"
         id="path4580" /></g><g
       id="g4582"
       transform="translate(304.331,280.495)"><path
         d="M 0,0 -26.268,63.118 H -9.26 L 7.119,23.694 23.497,63.118 H 40.506 L 14.238,0 C 9.492,0 4.746,0 0,0"
         style="fill:rgba(242, 242, 242, 0.7);fill-opacity:1;fill-rule:evenodd;stroke:none"
         id="path4584" /></g><g
       id="g4586"><g
         id="g4588"
         clip-path="url(#clipPath4592)"><g
           id="g4594"
           transform="translate(557.908,282.577)"><path
             d="M 0,0 V 1.243 H 0.821 L 0,3.722 V 7.164 H 0.056 L 3.412,-2.06 H 1.935 L 1.222,0 Z M 64.601,10.254 H 0 V 11.68 H 64.601 Z M 0,10.254 Z m 0,5.643 v 9.223 h 0.881 l 2.642,-6.01 2.592,6.01 H 7.436 V 15.897 H 6.037 v 5.751 H 6.011 l -1.93,-4.43 H 2.915 l -1.931,4.43 H 0.959 v -5.751 z m 0,13.285 v 1.425 H 64.601 L 64.228,29.182 Z M 64.601,48.108 H 0 v 1.426 H 64.601 Z M 0,48.108 Z m 0,5.762 v 1.244 H 1.348 L 0.013,59.143 H 0 v 1.89 H 0.583 L 3.938,51.81 H 2.461 l -0.712,2.06 z m 0,7.617 v 1.584 l 0.194,0.308 H 1.93 L 0.09,61.487 Z m 10.32,-45.59 h 1.399 V 25.12 H 10.32 Z m 4.284,0 h 5.895 v 1.321 h -4.496 v 2.708 h 3.835 v 1.243 h -3.835 v 2.63 h 4.496 V 25.12 H 14.604 Z M 8.097,1.697 H 9.975 V 1.217 C 9.973,0.929 9.926,0.665 9.828,0.425 9.733,0.188 9.599,-0.02 9.429,-0.193 9.256,-0.367 9.055,-0.501 8.829,-0.596 8.6,-0.689 8.351,-0.736 8.084,-0.739 7.864,-0.736 7.663,-0.706 7.483,-0.644 7.304,-0.584 7.146,-0.504 7.009,-0.402 6.87,-0.3 6.754,-0.188 6.659,-0.065 6.585,0.026 6.523,0.116 6.471,0.205 6.419,0.294 6.374,0.397 6.337,0.514 6.302,0.63 6.274,0.775 6.253,0.948 6.231,1.122 6.216,1.339 6.206,1.598 6.197,1.859 6.192,2.176 6.192,2.552 c 0,0.376 0.005,0.693 0.014,0.954 0.01,0.259 0.025,0.478 0.047,0.65 C 6.274,4.329 6.302,4.473 6.337,4.59 6.374,4.707 6.419,4.81 6.471,4.899 6.523,4.987 6.585,5.078 6.659,5.169 6.754,5.292 6.87,5.404 7.009,5.506 7.146,5.607 7.304,5.687 7.483,5.749 7.663,5.81 7.864,5.841 8.084,5.842 8.379,5.841 8.645,5.778 8.882,5.655 9.122,5.534 9.323,5.372 9.487,5.171 9.651,4.97 9.772,4.75 9.846,4.508 h 1.477 C 11.251,4.886 11.124,5.24 10.942,5.57 10.761,5.899 10.53,6.188 10.252,6.438 9.973,6.689 9.651,6.885 9.288,7.026 8.924,7.168 8.522,7.239 8.084,7.241 7.721,7.239 7.386,7.19 7.082,7.094 6.778,7 6.503,6.872 6.262,6.715 6.018,6.555 5.806,6.378 5.629,6.182 5.449,5.987 5.305,5.787 5.195,5.583 5.137,5.478 5.082,5.374 5.039,5.273 4.994,5.171 4.955,5.052 4.925,4.92 4.892,4.786 4.869,4.62 4.849,4.419 4.83,4.218 4.815,3.968 4.806,3.666 4.798,3.364 4.793,2.992 4.793,2.552 4.793,2.111 4.798,1.74 4.806,1.438 4.815,1.135 4.83,0.885 4.849,0.684 4.869,0.484 4.892,0.317 4.925,0.185 4.955,0.052 4.994,-0.067 5.039,-0.168 5.082,-0.27 5.137,-0.374 5.195,-0.479 c 0.11,-0.204 0.254,-0.402 0.434,-0.599 0.177,-0.194 0.389,-0.373 0.633,-0.531 0.241,-0.16 0.516,-0.287 0.82,-0.382 0.304,-0.095 0.639,-0.145 1.002,-0.147 0.462,0.002 0.894,0.089 1.291,0.255 0.397,0.168 0.745,0.402 1.045,0.7 0.298,0.297 0.531,0.645 0.7,1.041 0.166,0.394 0.252,0.822 0.254,1.282 V 3.018 H 8.097 Z m 5.851,-3.757 h 5.894 v 1.321 h -4.495 v 2.708 h 3.834 v 1.243 h -3.834 v 2.63 h 4.495 v 1.322 h -5.894 z m 8.144,0 h 1.399 v 5.752 h 0.026 l 1.93,-4.431 h 1.166 l 1.93,4.431 h 0.026 V -2.06 h 1.399 V 7.164 H 28.647 L 26.056,1.153 23.413,7.164 h -1.321 z m 10.76,0 h 5.895 v 1.321 h -4.495 v 2.708 h 3.834 v 1.243 h -3.834 v 2.63 h 4.495 v 1.322 h -5.895 z m 8.144,0 h 1.4 v 6.555 h 0.026 l 4.171,-6.555 h 1.321 V 7.164 H 46.516 V 0.609 H 46.49 l -4.172,6.555 h -1.322 z m 11.371,0 h 1.398 v 7.98 h 2.527 V 7.164 H 49.841 V 5.92 h 2.526 z m 5.682,3.122 c 0.003,-0.481 0.089,-0.917 0.255,-1.309 0.169,-0.393 0.401,-0.727 0.7,-1.01 0.297,-0.283 0.645,-0.499 1.04,-0.65 0.395,-0.153 0.823,-0.229 1.283,-0.231 0.46,0.002 0.887,0.078 1.282,0.231 0.396,0.151 0.743,0.367 1.041,0.65 0.298,0.283 0.531,0.617 0.7,1.01 0.166,0.392 0.252,0.828 0.254,1.309 V 7.164 H 63.205 V 1.217 c -0.002,-0.422 -0.086,-0.781 -0.25,-1.071 -0.164,-0.291 -0.387,-0.511 -0.669,-0.66 -0.281,-0.149 -0.601,-0.225 -0.959,-0.225 -0.358,0 -0.678,0.076 -0.959,0.225 -0.282,0.149 -0.505,0.369 -0.669,0.66 -0.164,0.29 -0.246,0.649 -0.251,1.071 V 7.164 H 58.049 Z M 0,63.071 v -1.584 h -0.998 z m 0,-2.038 v -1.89 H -0.013 L -1.347,55.114 H 0 V 53.87 h -1.749 l -0.713,-2.06 h -1.476 l 3.355,9.223 z M -7.73,49.534 H 0 v -1.426 h -7.73 z m 7.73,0 z M -7.73,30.607 H 0 v -1.425 h -7.73 z m 7.73,0 z M -0.44,25.12 H 0 v -9.223 h -0.44 z m 0.44,0 z M -7.73,11.68 H 0 v -1.426 h -7.73 z m 7.73,0 z M 0,7.164 V 3.722 L -0.513,5.273 H -0.54 L -1.874,1.243 H 0 V 0 h -2.275 l -0.713,-2.06 h -1.477 l 3.355,9.224 z m -7.73,-9.196 v 9.196 h 1.339 V -2.06 h -1.321 z m 0,18.16 v 1.764 c 0.095,-0.123 0.212,-0.236 0.35,-0.337 0.138,-0.101 0.296,-0.182 0.475,-0.242 0.18,-0.063 0.38,-0.093 0.6,-0.095 0.221,0.002 0.422,0.032 0.601,0.095 0.179,0.06 0.339,0.141 0.474,0.242 0.139,0.101 0.255,0.214 0.351,0.337 0.073,0.091 0.135,0.181 0.187,0.27 0.054,0.088 0.097,0.192 0.134,0.308 0.035,0.117 0.065,0.262 0.084,0.434 0.022,0.175 0.037,0.391 0.048,0.65 0.009,0.261 0.013,0.579 0.013,0.955 0,0.376 -0.004,0.693 -0.013,0.954 -0.011,0.259 -0.026,0.477 -0.048,0.65 -0.019,0.172 -0.049,0.319 -0.084,0.433 -0.037,0.118 -0.08,0.221 -0.134,0.309 -0.052,0.089 -0.114,0.18 -0.187,0.27 -0.096,0.123 -0.212,0.235 -0.351,0.337 -0.135,0.102 -0.295,0.181 -0.474,0.244 -0.179,0.061 -0.38,0.091 -0.601,0.093 -0.22,-0.002 -0.42,-0.032 -0.6,-0.093 -0.179,-0.063 -0.337,-0.142 -0.475,-0.244 -0.138,-0.102 -0.255,-0.214 -0.35,-0.337 v 1.765 c 0.134,0.061 0.275,0.115 0.424,0.161 0.304,0.096 0.639,0.145 1.001,0.147 0.363,-0.002 0.698,-0.051 1.002,-0.147 0.305,-0.094 0.579,-0.222 0.823,-0.38 0.242,-0.16 0.453,-0.336 0.63,-0.533 0.18,-0.194 0.324,-0.395 0.434,-0.598 0.061,-0.106 0.113,-0.209 0.156,-0.311 0.045,-0.101 0.084,-0.22 0.114,-0.352 0.032,-0.134 0.056,-0.3 0.076,-0.501 0.019,-0.201 0.035,-0.451 0.043,-0.753 0.009,-0.303 0.013,-0.674 0.013,-1.114 0,-0.441 -0.004,-0.812 -0.013,-1.115 -0.008,-0.302 -0.024,-0.553 -0.043,-0.753 -0.02,-0.201 -0.044,-0.367 -0.076,-0.499 -0.03,-0.134 -0.069,-0.253 -0.114,-0.354 -0.043,-0.102 -0.095,-0.205 -0.156,-0.311 -0.11,-0.203 -0.254,-0.402 -0.434,-0.598 -0.177,-0.194 -0.388,-0.374 -0.63,-0.531 -0.244,-0.16 -0.518,-0.287 -0.823,-0.382 -0.304,-0.095 -0.639,-0.145 -1.002,-0.147 -0.362,0.002 -0.697,0.052 -1.001,0.147 -0.149,0.046 -0.29,0.1 -0.424,0.162 z m 0,19.785 v 1.244 h 1.348 l -1.335,4.029 H -7.73 v 1.891 h 0.584 l 3.355,-9.224 h -1.477 l -0.712,2.06 z m 0,18.012 v 2.738 L -4.893,51.81 H -6.55 Z m 0,3.995 v 2.026 l 0.868,1.087 h 1.658 z m 0,2.026 V 57.92 l -0.427,-0.526 0.427,-0.731 v -2.738 l -1.334,2.393 -1.619,-1.697 V 51.81 h -1.399 v 9.223 h 1.399 v -4.754 h 0.026 z M -17.946,49.534 H -7.73 v -1.426 h -10.216 z m 10.216,0 z m 0,-6.457 v -1.891 h -0.013 l -1.334,-4.029 h 1.347 v -1.244 h -1.748 l -0.713,-2.06 h -1.477 l 3.355,9.224 z M -17.946,30.607 H -7.73 v -1.425 h -10.216 z m 10.216,0 z m 0,-5.717 v -1.765 c -0.073,-0.09 -0.136,-0.181 -0.188,-0.27 -0.051,-0.088 -0.097,-0.191 -0.133,-0.309 -0.035,-0.114 -0.063,-0.261 -0.085,-0.433 -0.021,-0.173 -0.036,-0.391 -0.047,-0.65 -0.008,-0.261 -0.013,-0.578 -0.013,-0.954 0,-0.376 0.005,-0.694 0.013,-0.955 0.011,-0.259 0.026,-0.475 0.047,-0.65 0.022,-0.172 0.05,-0.317 0.085,-0.434 0.036,-0.116 0.082,-0.22 0.133,-0.308 0.052,-0.089 0.115,-0.179 0.188,-0.27 v -1.764 c -0.14,0.065 -0.273,0.138 -0.397,0.22 -0.244,0.157 -0.456,0.337 -0.632,0.531 -0.18,0.196 -0.324,0.395 -0.435,0.598 -0.058,0.106 -0.112,0.209 -0.155,0.311 -0.045,0.101 -0.084,0.22 -0.114,0.354 -0.033,0.132 -0.056,0.298 -0.076,0.499 -0.019,0.2 -0.034,0.451 -0.043,0.753 -0.008,0.303 -0.013,0.674 -0.013,1.115 0,0.44 0.005,0.811 0.013,1.114 0.009,0.302 0.024,0.552 0.043,0.753 0.02,0.201 0.043,0.367 0.076,0.501 0.03,0.132 0.069,0.251 0.114,0.352 0.043,0.102 0.097,0.205 0.155,0.311 0.111,0.203 0.255,0.404 0.435,0.598 0.176,0.197 0.388,0.373 0.632,0.533 0.124,0.081 0.257,0.154 0.397,0.219 z M -17.946,11.68 H -7.73 v -1.426 h -10.216 z m 10.216,0 z m 0,-4.516 v -9.196 l -4.153,6.527 h -0.026 V -2.06 h -1.4 v 9.224 h 1.322 L -7.816,0.609 H -7.79 V 7.164 Z M -17.946,0 v 1.243 h 0.121 l -0.121,0.367 v 3.786 l 2.712,-7.456 h -1.477 L -17.424,0 Z m 0,15.897 v 9.223 h 0.181 l 4.171,-6.555 h 0.026 v 6.555 h 1.399 v -9.223 h -1.321 l -4.171,6.555 h -0.026 v -6.555 z m 0,17.956 v 9.224 h 0.492 v -7.903 h 4.495 v -1.321 z m 0,17.879 v 1.399 c 0.22,0.002 0.421,0.033 0.6,0.095 0.179,0.061 0.339,0.141 0.475,0.242 0.138,0.102 0.255,0.214 0.35,0.337 0.073,0.091 0.136,0.181 0.188,0.27 0.054,0.089 0.097,0.192 0.133,0.309 0.035,0.117 0.065,0.261 0.085,0.433 0.021,0.175 0.036,0.391 0.047,0.65 0.009,0.262 0.013,0.579 0.013,0.955 0,0.376 -0.004,0.693 -0.013,0.954 -0.011,0.259 -0.026,0.478 -0.047,0.65 -0.02,0.173 -0.05,0.32 -0.085,0.434 -0.036,0.117 -0.079,0.22 -0.133,0.309 -0.052,0.089 -0.115,0.179 -0.188,0.27 -0.095,0.123 -0.212,0.235 -0.35,0.337 -0.136,0.101 -0.296,0.181 -0.475,0.244 -0.179,0.06 -0.38,0.09 -0.6,0.092 v 1.4 c 0.363,-0.003 0.697,-0.052 1.002,-0.147 0.304,-0.095 0.578,-0.222 0.822,-0.38 0.242,-0.16 0.454,-0.337 0.63,-0.534 0.18,-0.194 0.325,-0.395 0.435,-0.598 0.06,-0.106 0.112,-0.209 0.155,-0.31 0.046,-0.102 0.084,-0.221 0.115,-0.353 0.032,-0.133 0.056,-0.3 0.075,-0.5 0.02,-0.201 0.034,-0.451 0.043,-0.754 0.009,-0.302 0.013,-0.674 0.013,-1.114 0,-0.441 -0.004,-0.812 -0.013,-1.114 -0.009,-0.302 -0.023,-0.553 -0.043,-0.754 -0.019,-0.2 -0.043,-0.367 -0.075,-0.498 -0.031,-0.135 -0.069,-0.253 -0.115,-0.355 -0.043,-0.101 -0.095,-0.205 -0.155,-0.311 -0.11,-0.203 -0.255,-0.401 -0.435,-0.598 -0.176,-0.194 -0.388,-0.373 -0.63,-0.531 -0.244,-0.159 -0.518,-0.287 -0.822,-0.382 -0.305,-0.095 -0.639,-0.145 -1.002,-0.147 z m 0,9.38 v -1.4 h -10e-4 c -0.22,-0.002 -0.421,-0.032 -0.599,-0.092 -0.18,-0.063 -0.337,-0.143 -0.475,-0.244 -0.139,-0.102 -0.255,-0.214 -0.351,-0.337 -0.073,-0.091 -0.135,-0.181 -0.187,-0.27 -0.052,-0.089 -0.097,-0.192 -0.134,-0.309 -0.034,-0.114 -0.063,-0.261 -0.084,-0.434 -0.022,-0.172 -0.037,-0.391 -0.048,-0.65 -0.008,-0.261 -0.013,-0.578 -0.013,-0.954 0,-0.376 0.005,-0.693 0.013,-0.955 0.011,-0.259 0.026,-0.475 0.048,-0.65 0.021,-0.172 0.05,-0.316 0.084,-0.433 0.037,-0.117 0.082,-0.22 0.134,-0.309 0.052,-0.089 0.114,-0.179 0.187,-0.27 0.096,-0.123 0.212,-0.235 0.351,-0.337 0.138,-0.101 0.295,-0.181 0.475,-0.242 0.178,-0.062 0.379,-0.093 0.599,-0.095 h 10e-4 v -1.399 h -10e-4 c -0.362,0.002 -0.697,0.052 -1.001,0.147 -0.304,0.095 -0.579,0.223 -0.82,0.382 -0.244,0.158 -0.456,0.337 -0.633,0.531 -0.179,0.197 -0.324,0.395 -0.434,0.598 -0.059,0.106 -0.113,0.21 -0.155,0.311 -0.046,0.102 -0.085,0.22 -0.115,0.355 -0.032,0.131 -0.056,0.298 -0.075,0.498 -0.02,0.201 -0.035,0.452 -0.044,0.754 -0.008,0.302 -0.013,0.673 -0.013,1.114 0,0.44 0.005,0.812 0.013,1.114 0.009,0.303 0.024,0.553 0.044,0.754 0.019,0.2 0.043,0.367 0.075,0.5 0.03,0.132 0.069,0.251 0.115,0.353 0.042,0.101 0.096,0.204 0.155,0.31 0.11,0.203 0.255,0.404 0.434,0.598 0.177,0.197 0.389,0.374 0.633,0.534 0.241,0.158 0.516,0.285 0.82,0.38 0.304,0.095 0.639,0.144 1.001,0.147 z m -6.771,-11.578 h 6.7709 v -1.426 h -6.7709 z m 6.771,0 z m -0.907,-6.457 h 0.90692 V 33.853 H -18.853 Z m 0.907,0 z m -6.771,-12.47 h 6.7709 v -1.425 h -6.7709 z m 6.771,0 z m -1.141,-5.487 h 1.141 v -9.223 h -1.141 z m 1.141,0 z m -6.771,-13.44 h 6.7709 v -1.426 h -6.7709 z m 6.771,0 z m 0,-6.284 V 1.61 l -1.214,3.663 h -0.026 l -1.334,-4.03 h 2.574 V 0 h -2.975 l -0.713,-2.06 h -1.477 l 3.355,9.224 h 1.166 z m -6.771,10.431 v 1.405 c 0.13,0.014 0.253,0.041 0.367,0.081 0.179,0.06 0.339,0.141 0.475,0.242 0.138,0.101 0.254,0.214 0.35,0.337 0.073,0.091 0.136,0.181 0.187,0.27 0.054,0.088 0.098,0.192 0.134,0.308 0.035,0.117 0.065,0.262 0.084,0.434 0.022,0.175 0.037,0.391 0.048,0.65 0.009,0.261 0.013,0.579 0.013,0.955 0,0.376 -0.004,0.693 -0.013,0.954 -0.011,0.259 -0.026,0.477 -0.048,0.65 -0.019,0.172 -0.049,0.319 -0.084,0.433 -0.036,0.118 -0.08,0.221 -0.134,0.309 -0.051,0.089 -0.114,0.18 -0.187,0.27 -0.096,0.123 -0.212,0.235 -0.35,0.337 -0.136,0.102 -0.296,0.181 -0.475,0.244 -0.114,0.039 -0.237,0.065 -0.367,0.079 v 1.405 c 0.274,-0.018 0.53,-0.064 0.768,-0.139 0.305,-0.094 0.579,-0.222 0.823,-0.38 0.242,-0.16 0.453,-0.336 0.631,-0.533 0.179,-0.194 0.324,-0.395 0.434,-0.598 0.06,-0.106 0.112,-0.209 0.155,-0.311 0.046,-0.101 0.084,-0.22 0.114,-0.352 0.033,-0.134 0.056,-0.3 0.076,-0.501 0.02,-0.201 0.034,-0.451 0.043,-0.753 0.009,-0.303 0.013,-0.674 0.013,-1.114 0,-0.441 -0.004,-0.812 -0.013,-1.115 -0.009,-0.302 -0.023,-0.553 -0.043,-0.753 -0.02,-0.201 -0.043,-0.367 -0.076,-0.499 -0.03,-0.134 -0.068,-0.253 -0.114,-0.354 -0.043,-0.102 -0.095,-0.205 -0.155,-0.311 -0.11,-0.203 -0.255,-0.402 -0.434,-0.598 -0.178,-0.194 -0.389,-0.374 -0.631,-0.531 -0.244,-0.16 -0.518,-0.287 -0.823,-0.382 -0.238,-0.075 -0.494,-0.121 -0.768,-0.139 z m 0,17.949 v 1.398 c 0.22,0.003 0.421,0.033 0.6,0.096 0.179,0.06 0.339,0.14 0.475,0.241 0.138,0.102 0.255,0.215 0.35,0.338 0.073,0.09 0.136,0.181 0.188,0.27 0.054,0.088 0.097,0.192 0.133,0.308 0.035,0.117 0.065,0.262 0.085,0.434 0.021,0.175 0.036,0.391 0.047,0.65 0.009,0.261 0.013,0.579 0.013,0.954 0,0.376 -0.004,0.693 -0.013,0.954 -0.011,0.259 -0.026,0.478 -0.047,0.65 -0.02,0.173 -0.05,0.32 -0.085,0.434 -0.036,0.117 -0.079,0.221 -0.133,0.309 -0.052,0.089 -0.115,0.179 -0.188,0.27 -0.095,0.123 -0.212,0.235 -0.35,0.337 -0.136,0.101 -0.296,0.181 -0.475,0.244 -0.179,0.06 -0.38,0.091 -0.6,0.093 v 1.399 c 0.362,-0.003 0.697,-0.052 1.002,-0.147 0.304,-0.095 0.578,-0.223 0.822,-0.38 0.242,-0.16 0.454,-0.337 0.631,-0.533 0.179,-0.194 0.324,-0.395 0.434,-0.599 0.06,-0.105 0.112,-0.208 0.155,-0.31 0.046,-0.102 0.084,-0.221 0.115,-0.352 0.032,-0.134 0.056,-0.301 0.075,-0.501 0.019,-0.201 0.035,-0.451 0.044,-0.753 0.008,-0.303 0.012,-0.675 0.012,-1.115 0,-0.44 -0.004,-0.811 -0.012,-1.114 -0.009,-0.302 -0.025,-0.553 -0.044,-0.753 -0.019,-0.201 -0.043,-0.367 -0.075,-0.499 -0.031,-0.134 -0.069,-0.253 -0.115,-0.354 -0.043,-0.102 -0.095,-0.205 -0.155,-0.311 -0.11,-0.203 -0.255,-0.402 -0.434,-0.598 -0.177,-0.195 -0.389,-0.374 -0.631,-0.531 -0.244,-0.16 -0.518,-0.287 -0.822,-0.383 -0.305,-0.095 -0.64,-0.144 -1.002,-0.146 z m 0,18.341 v 4.611 c 0.302,-0.159 0.555,-0.357 0.755,-0.593 0.21,-0.242 0.363,-0.512 0.465,-0.806 0.104,-0.293 0.153,-0.598 0.153,-0.915 -0.002,-0.568 -0.136,-1.051 -0.399,-1.449 -0.237,-0.359 -0.56,-0.64 -0.974,-0.848 z m 0,7.073 v 1.547 l 0.205,-0.087 c 0.318,-0.145 0.616,-0.309 0.896,-0.497 L -24.394,59 c -0.105,0.068 -0.213,0.131 -0.323,0.19 z m -17.169,-7.38 h 0.194 l 3.044,9.223 h -1.476 l -1.762,-5.895 z m 17.169,8.927 V 59.19 c -0.244,0.13 -0.498,0.238 -0.762,0.326 -0.387,0.13 -0.784,0.194 -1.194,0.196 -0.287,0 -0.549,-0.047 -0.78,-0.147 -0.23,-0.096 -0.416,-0.243 -0.553,-0.44 -0.135,-0.197 -0.207,-0.44 -0.209,-0.734 -0.002,-0.175 0.043,-0.343 0.132,-0.503 0.089,-0.162 0.231,-0.302 0.423,-0.421 0.192,-0.121 0.445,-0.205 0.754,-0.255 0.122,-0.019 0.272,-0.041 0.444,-0.067 0.175,-0.024 0.372,-0.05 0.592,-0.075 0.43,-0.054 0.805,-0.162 1.123,-0.326 l 0.03,-0.016 v -4.611 l -0.145,-0.067 c -0.483,-0.21 -1.055,-0.316 -1.721,-0.318 -0.68,0 -1.317,0.104 -1.906,0.316 -0.592,0.209 -1.129,0.526 -1.617,0.954 l 0.919,1.05 c 0.236,-0.186 0.491,-0.351 0.771,-0.487 0.279,-0.138 0.574,-0.244 0.886,-0.319 0.311,-0.076 0.632,-0.115 0.96,-0.115 0.382,0.002 0.709,0.056 0.981,0.162 0.272,0.108 0.481,0.257 0.626,0.449 0.145,0.19 0.218,0.415 0.22,0.672 0,0.218 -0.041,0.412 -0.127,0.587 -0.086,0.175 -0.218,0.318 -0.397,0.432 -0.178,0.115 -0.404,0.188 -0.681,0.224 -0.135,0.018 -0.267,0.035 -0.392,0.052 -0.126,0.018 -0.255,0.037 -0.39,0.057 -0.131,0.019 -0.278,0.039 -0.435,0.06 -0.532,0.078 -0.981,0.235 -1.343,0.473 -0.363,0.239 -0.639,0.539 -0.825,0.902 -0.186,0.363 -0.281,0.769 -0.281,1.216 0,0.397 0.069,0.76 0.203,1.088 0.132,0.329 0.328,0.613 0.585,0.853 0.259,0.24 0.572,0.423 0.944,0.555 0.373,0.132 0.796,0.196 1.274,0.199 0.38,-0.003 0.744,-0.044 1.094,-0.126 0.277,-0.064 0.542,-0.147 0.797,-0.249 z M -41.886,49.534 h 17.169 v -1.426 h -17.169 z m 17.169,0 z m 0,-6.379 v -1.399 c -0.22,-0.002 -0.421,-0.033 -0.6,-0.093 -0.18,-0.063 -0.338,-0.143 -0.475,-0.244 -0.139,-0.102 -0.255,-0.214 -0.35,-0.337 -0.073,-0.091 -0.136,-0.181 -0.188,-0.27 -0.052,-0.088 -0.097,-0.192 -0.134,-0.309 -0.034,-0.114 -0.063,-0.261 -0.085,-0.434 -0.021,-0.172 -0.036,-0.391 -0.047,-0.65 -0.008,-0.261 -0.012,-0.578 -0.012,-0.954 0,-0.375 0.004,-0.693 0.012,-0.954 0.011,-0.259 0.026,-0.475 0.047,-0.65 0.022,-0.172 0.051,-0.317 0.085,-0.434 0.037,-0.116 0.082,-0.22 0.134,-0.308 0.052,-0.089 0.115,-0.18 0.188,-0.27 0.095,-0.123 0.211,-0.236 0.35,-0.338 0.137,-0.101 0.295,-0.181 0.475,-0.241 0.179,-0.063 0.38,-0.093 0.6,-0.096 v -1.398 c -0.363,0.002 -0.698,0.051 -1.002,0.146 -0.305,0.096 -0.579,0.223 -0.821,0.383 -0.244,0.157 -0.455,0.336 -0.632,0.531 -0.179,0.196 -0.324,0.395 -0.434,0.598 -0.059,0.106 -0.113,0.209 -0.156,0.311 -0.045,0.101 -0.084,0.22 -0.114,0.354 -0.032,0.132 -0.056,0.298 -0.076,0.499 -0.019,0.2 -0.034,0.451 -0.043,0.753 -0.008,0.303 -0.012,0.674 -0.012,1.114 0,0.44 0.004,0.812 0.012,1.115 0.009,0.302 0.024,0.552 0.043,0.753 0.02,0.2 0.044,0.367 0.076,0.501 0.03,0.131 0.069,0.25 0.114,0.352 0.043,0.102 0.097,0.205 0.156,0.31 0.11,0.204 0.255,0.405 0.434,0.599 0.177,0.196 0.388,0.373 0.632,0.533 0.242,0.157 0.516,0.285 0.821,0.38 0.304,0.095 0.639,0.144 1.002,0.147 z M -41.886,30.607 h 17.169 v -1.425 h -17.169 z m 17.169,0 z m 0,-5.417 v -1.405 l -0.234,0.014 c -0.22,-0.002 -0.42,-0.032 -0.599,-0.093 -0.18,-0.063 -0.337,-0.142 -0.476,-0.244 -0.138,-0.102 -0.254,-0.214 -0.349,-0.337 -0.074,-0.09 -0.137,-0.181 -0.188,-0.27 -0.052,-0.088 -0.098,-0.191 -0.134,-0.309 -0.034,-0.114 -0.063,-0.261 -0.084,-0.433 -0.022,-0.173 -0.037,-0.391 -0.048,-0.65 -0.008,-0.261 -0.013,-0.578 -0.013,-0.954 0,-0.376 0.005,-0.694 0.013,-0.955 0.011,-0.259 0.026,-0.475 0.048,-0.65 0.021,-0.172 0.05,-0.317 0.084,-0.434 0.036,-0.116 0.082,-0.22 0.134,-0.308 0.051,-0.089 0.114,-0.179 0.188,-0.27 0.095,-0.123 0.211,-0.236 0.349,-0.337 0.139,-0.101 0.296,-0.182 0.476,-0.242 0.179,-0.063 0.379,-0.093 0.599,-0.095 l 0.234,0.014 v -1.405 l -0.234,-0.008 c -0.362,0.002 -0.697,0.052 -1.001,0.147 -0.305,0.095 -0.579,0.222 -0.821,0.382 -0.244,0.157 -0.455,0.337 -0.632,0.531 -0.18,0.196 -0.324,0.395 -0.434,0.598 -0.059,0.106 -0.113,0.209 -0.156,0.311 -0.045,0.101 -0.084,0.22 -0.114,0.354 -0.033,0.132 -0.056,0.298 -0.076,0.499 -0.019,0.2 -0.034,0.451 -0.043,0.753 -0.009,0.303 -0.013,0.674 -0.013,1.115 0,0.44 0.004,0.811 0.013,1.114 0.009,0.302 0.024,0.552 0.043,0.753 0.02,0.201 0.043,0.367 0.076,0.501 0.03,0.132 0.069,0.251 0.114,0.352 0.043,0.102 0.097,0.205 0.156,0.311 0.11,0.203 0.254,0.404 0.434,0.598 0.177,0.197 0.388,0.373 0.632,0.533 0.242,0.158 0.516,0.286 0.821,0.38 0.304,0.096 0.639,0.145 1.001,0.147 z M -41.886,11.68 h 17.169 v -1.426 h -17.169 z m 17.169,0 z M -41.886,0 v 1.243 h 1.347 l -1.334,4.03 h -0.013 v 1.891 h 0.583 l 3.355,-9.224 h -1.477 L -40.137,0 Z m 2.915,15.897 h -2.915 v 1.321 h 2.915 z m -2.915,0 z m 2.254,4.029 h -2.254 v 1.243 h 2.254 z m -2.254,0 z m 2.915,3.873 h -2.915 v 1.321 h 2.915 z m -2.915,0 z m 0,9.983 v 1.402 c 0.278,0.02 0.523,0.07 0.734,0.153 0.272,0.108 0.481,0.257 0.626,0.449 0.145,0.19 0.218,0.414 0.22,0.671 0,0.219 -0.041,0.413 -0.127,0.588 -0.086,0.174 -0.218,0.317 -0.397,0.431 -0.178,0.115 -0.404,0.188 -0.681,0.225 -0.129,0.016 -0.255,0.033 -0.375,0.049 v 1.42 c 0.139,-0.018 0.289,-0.038 0.453,-0.057 0.43,-0.054 0.806,-0.162 1.123,-0.326 0.315,-0.162 0.579,-0.365 0.786,-0.609 0.209,-0.242 0.363,-0.512 0.464,-0.805 0.104,-0.294 0.153,-0.598 0.153,-0.916 -0.002,-0.568 -0.136,-1.051 -0.399,-1.448 -0.263,-0.4 -0.635,-0.704 -1.118,-0.916 -0.42,-0.182 -0.906,-0.285 -1.462,-0.311 z m 0,7.957 v 1.407 c 0.278,-0.017 0.548,-0.055 0.81,-0.116 0.352,-0.082 0.684,-0.195 1.001,-0.337 0.318,-0.145 0.616,-0.309 0.896,-0.497 l -0.777,-1.152 c -0.339,0.217 -0.701,0.388 -1.086,0.515 -0.276,0.093 -0.557,0.152 -0.844,0.18 z m 0,1.792 v 1.076 l 0.635,0.815 h 1.244 l -1.373,-1.891 z m 6.771,8.279 h 1.321 v 3.796 l 2.773,5.427 h -1.477 l -1.957,-4.093 -1.956,4.093 h -1.477 l 2.773,-5.427 z m -1.373,-17.957 h 1.399 v 2.811 l 1.619,1.698 2.513,-4.509 h 1.658 l -3.264,5.584 2.953,3.64 h -1.658 l -3.795,-4.754 h -0.026 v 4.754 h -1.399 z m -0.234,-17.956 h 1.4 v 2.811 l 1.619,1.697 2.513,-4.508 h 1.658 l -3.264,5.583 2.953,3.64 h -1.658 l -3.796,-4.754 h -0.025 v 4.754 h -1.4 z m 3.809,-17.957 h 1.399 v 5.752 h 0.026 l 1.93,-4.431 h 1.166 l 1.931,4.431 h 0.026 V -2.06 h 1.399 v 9.224 h -1.322 l -2.591,-6.011 -2.642,6.011 h -1.322 z m -9.867,53.87 h 0.894 v 3.328 l -0.337,-1.126 h -0.026 l -2.098,7.021 h -1.478 z m -3.103,-2.276 h 3.997 v -1.426 h -3.997 z m 3.997,0 z m 0,-4.927 v -1.076 h -0.972 l -1.373,1.891 h 1.244 l 0.868,-1.114 z m 0,-1.461 v -1.407 c -0.116,0.011 -0.232,0.016 -0.35,0.017 -0.287,0 -0.549,-0.047 -0.779,-0.147 -0.231,-0.097 -0.417,-0.244 -0.553,-0.441 -0.136,-0.196 -0.208,-0.44 -0.209,-0.734 -0.003,-0.175 0.043,-0.343 0.131,-0.503 0.089,-0.161 0.231,-0.302 0.423,-0.421 0.193,-0.12 0.445,-0.205 0.754,-0.255 0.123,-0.019 0.272,-0.041 0.444,-0.066 l 0.139,-0.019 v -1.42 l -0.017,0.003 c -0.126,0.017 -0.255,0.036 -0.389,0.056 -0.131,0.019 -0.278,0.039 -0.436,0.06 -0.532,0.078 -0.981,0.236 -1.343,0.473 -0.363,0.24 -0.639,0.54 -0.825,0.903 -0.186,0.363 -0.281,0.768 -0.281,1.215 0,0.397 0.069,0.76 0.203,1.089 0.132,0.328 0.329,0.613 0.586,0.852 0.258,0.24 0.571,0.424 0.943,0.555 0.373,0.132 0.797,0.196 1.274,0.199 0.096,-10e-4 0.191,-0.004 0.285,-0.009 z m 0,-7.962 v -1.402 l -0.259,-0.006 c -0.68,0 -1.317,0.103 -1.907,0.315 -0.591,0.209 -1.128,0.526 -1.617,0.954 l 0.92,1.049 c 0.235,-0.185 0.49,-0.349 0.771,-0.485 0.278,-0.138 0.574,-0.245 0.885,-0.32 0.311,-0.075 0.632,-0.115 0.961,-0.115 z m -3.997,-4.577 h 3.997 v -1.425 h -3.997 z m 3.997,0 z m 0,-5.487 v -1.321 h -1.581 v -2.63 h 1.581 v -1.243 h -1.581 v -2.708 h 1.581 v -1.321 h -2.98 v 9.223 z m -3.997,-13.44 h 3.997 v -1.426 h -3.997 z m 3.997,0 z m 0,-4.516 V 5.273 h -0.013 l -1.334,-4.03 h 1.347 V 0 h -1.749 l -0.712,-2.06 h -1.478 l 3.356,9.224 h 0.583"
             style="fill:rgba(242, 242, 242, 0.7);fill-opacity:1;fill-rule:nonzero;stroke:none"
             id="path4596" /></g></g></g><g
       id="g4598"
       transform="translate(256.385,215.753)"><path
         d="M 0,0 4.691,-1.221 9.381,0 V -3.696 L 4.691,-4.916 0,-3.696 Z m 11.781,-7.054 v -4.011 c -2.745,1.223 -4.928,1.84 -6.556,1.84 -0.93,0 -1.668,-0.155 -2.214,-0.466 -0.55,-0.306 -0.824,-0.717 -0.824,-1.224 0,-0.396 0.198,-0.767 0.592,-1.118 0.393,-0.35 1.36,-0.807 2.886,-1.368 1.531,-0.557 2.755,-1.074 3.675,-1.555 0.919,-0.48 1.708,-1.158 2.375,-2.025 0.667,-0.872 1.001,-1.975 1.001,-3.309 0,-1.895 -0.728,-3.409 -2.184,-4.537 -1.455,-1.123 -3.376,-1.69 -5.751,-1.69 -2.568,0 -5.055,0.662 -7.466,1.986 v 4.422 c 1.385,-0.923 2.608,-1.595 3.674,-2.016 1.066,-0.421 2.194,-0.632 3.392,-0.632 2.022,0 3.033,0.632 3.033,1.896 0,0.431 -0.202,0.837 -0.607,1.218 -0.404,0.386 -1.38,0.847 -2.926,1.399 -1.542,0.546 -2.765,1.058 -3.67,1.524 -0.905,0.471 -1.684,1.144 -2.34,2.015 -0.656,0.872 -0.986,1.986 -0.986,3.349 0,4.243 4.241,5.891 7.896,5.891 2.208,0 4.543,-0.532 7,-1.589 z m 16.204,-15.149 v -3.695 H 13.326 v 20.162 h 14.659 v -3.695 h -9.64 v -4.231 h 7.683 v -3.694 h -7.683 v -4.847 z m 11.693,8.989 6.483,7.478 h 4.369 v -20.162 h -5.019 v 12.586 l -5.444,-6.325 h -0.763 l -5.438,6.325 v -12.586 h -5.024 v 20.162 h 4.374 l 6.462,-7.478"
         style="fill:rgba(242, 242, 242, 0.7);fill-opacity:1;fill-rule:evenodd;stroke:none"
         id="path4600" /></g><g
       id="g4602"
       transform="translate(230.559,210.016)"><path
         d="m 0,0 h -18.333 v -20.154 h 12.22 l -1.503,3.644 h -7.072 v 12.865 h 12.865 v -7.805 l 3.568,-8.704 H 1.822 V 0 Z m -4.155,-20.154 h 4.11 l -5.386,13.042 h -3.993 l 5.269,-13.042"
         style="fill:rgba(128, 128, 128, 0.7);fill-opacity:1;fill-rule:nonzero;stroke:none"
         id="path4604" /></g><g
       id="g4606"
       transform="translate(241.528,189.862)"><path
         d="m 0,0 -8.388,20.154 h 5.431 l 5.23,-12.589 5.23,12.589 h 5.431 L 4.546,0 C 3.031,0 1.515,0 0,0"
         style="fill:rgba(242, 242, 242, 0.7);fill-opacity:1;fill-rule:evenodd;stroke:none"
         id="path4608" /></g><g
       id="g4610"><g
         id="g4612"
         clip-path="url(#clipPath4616)"><g
           id="g4618"
           transform="translate(251.537,125.543)"><path
             d="M 0,0 V 1.067 H 0.705 L 0,3.193 V 6.146 H 0.048 L 2.927,-1.768 H 1.66 L 1.049,0 Z M 55.428,8.798 H 0 v 1.223 H 55.428 Z M 0,8.798 Z m 0,4.841 v 7.914 h 0.756 l 2.267,-5.157 2.224,5.157 H 6.38 v -7.914 h -1.2 v 4.935 H 5.157 L 3.501,14.773 h -1 L 0.845,18.574 H 0.823 v -4.935 z m 0,11.399 v 1.223 h 55.428 l -0.32,-1.223 z M 55.428,41.276 H 0 V 42.5 H 55.428 Z M 0,41.276 Z m 0,4.944 v 1.067 H 1.156 L 0.011,50.744 H 0 v 1.623 H 0.5 L 3.379,44.453 H 2.112 L 1.501,46.22 Z m 0,6.536 v 1.359 l 0.167,0.264 H 1.656 L 0.078,52.756 Z M 8.855,13.639 h 1.2 v 7.914 h -1.2 z m 3.675,0 h 5.058 v 1.134 h -3.857 v 2.323 h 3.29 v 1.067 h -3.29 v 2.256 h 3.857 v 1.134 H 12.53 Z M 6.947,1.456 H 8.559 V 1.044 C 8.557,0.797 8.516,0.57 8.433,0.365 8.351,0.161 8.236,-0.017 8.09,-0.165 7.942,-0.315 7.77,-0.43 7.575,-0.512 7.379,-0.591 7.166,-0.632 6.936,-0.634 6.747,-0.632 6.575,-0.606 6.421,-0.553 6.267,-0.501 6.132,-0.432 6.014,-0.345 5.895,-0.257 5.795,-0.161 5.713,-0.056 L 5.552,0.176 C 5.508,0.252 5.469,0.341 5.437,0.441 5.408,0.54 5.384,0.665 5.365,0.813 5.346,0.963 5.334,1.148 5.325,1.371 5.317,1.594 5.313,1.867 5.313,2.189 c 0,0.323 0.004,0.595 0.012,0.819 0.009,0.222 0.021,0.41 0.04,0.558 0.019,0.148 0.043,0.272 0.072,0.372 0.032,0.1 0.071,0.189 0.115,0.265 L 5.713,4.435 C 5.795,4.54 5.895,4.637 6.014,4.724 6.132,4.811 6.267,4.879 6.421,4.933 6.575,4.985 6.747,5.011 6.936,5.013 7.19,5.011 7.418,4.957 7.621,4.851 7.827,4.748 7.999,4.609 8.14,4.436 8.281,4.264 8.385,4.075 8.448,3.868 H 9.715 C 9.654,4.192 9.544,4.496 9.389,4.779 9.233,5.061 9.035,5.309 8.796,5.524 8.557,5.739 8.281,5.907 7.97,6.028 7.657,6.15 7.312,6.211 6.936,6.213 6.625,6.211 6.338,6.169 6.076,6.087 5.815,6.006 5.58,5.896 5.373,5.761 5.163,5.624 4.982,5.472 4.83,5.304 4.676,5.137 4.552,4.965 4.457,4.79 4.407,4.7 4.361,4.611 4.324,4.524 4.285,4.436 4.252,4.335 4.226,4.221 4.198,4.106 4.178,3.964 4.161,3.791 4.144,3.619 4.131,3.405 4.124,3.145 4.117,2.886 4.113,2.567 4.113,2.189 4.113,1.811 4.117,1.493 4.124,1.233 4.131,0.974 4.144,0.759 4.161,0.587 4.178,0.415 4.198,0.272 4.226,0.159 4.252,0.044 4.285,-0.058 4.324,-0.145 4.361,-0.232 4.407,-0.321 4.457,-0.411 4.552,-0.586 4.676,-0.756 4.83,-0.925 c 0.152,-0.166 0.333,-0.32 0.543,-0.456 0.207,-0.137 0.442,-0.246 0.703,-0.327 0.262,-0.082 0.549,-0.124 0.86,-0.126 0.397,0.002 0.767,0.075 1.108,0.218 0.341,0.145 0.639,0.345 0.896,0.601 0.256,0.255 0.456,0.553 0.601,0.893 0.142,0.338 0.216,0.705 0.218,1.1 V 2.59 H 6.947 Z m 5.02,-3.224 h 5.057 v 1.134 h -3.856 v 2.323 h 3.29 v 1.067 h -3.29 v 2.257 h 3.856 v 1.133 h -5.057 z m 6.988,0 h 1.2 v 4.935 h 0.023 l 1.656,-3.801 h 1 l 1.656,3.801 h 0.023 v -4.935 h 1.2 V 6.146 H 24.579 L 22.356,0.989 20.089,6.146 h -1.134 z m 9.233,0 h 5.057 v 1.134 h -3.857 v 2.323 h 3.29 v 1.067 h -3.29 v 2.257 h 3.857 v 1.133 h -5.057 z m 6.987,0 h 1.201 v 5.625 h 0.022 l 3.579,-5.625 h 1.134 v 7.914 h -1.2 V 0.522 h -0.023 l -3.579,5.624 h -1.134 z m 9.756,0 h 1.2 v 6.847 h 2.168 V 6.146 H 42.763 V 5.079 h 2.168 z m 4.875,2.679 c 0.002,-0.413 0.076,-0.787 0.219,-1.123 0.145,-0.337 0.344,-0.624 0.6,-0.867 0.256,-0.242 0.554,-0.428 0.893,-0.557 0.339,-0.132 0.706,-0.196 1.101,-0.198 0.394,0.002 0.761,0.066 1.1,0.198 0.339,0.129 0.637,0.315 0.893,0.557 0.256,0.243 0.455,0.53 0.6,0.867 0.143,0.336 0.217,0.71 0.219,1.123 V 6.146 H 54.23 V 1.044 c -0.002,-0.362 -0.074,-0.67 -0.215,-0.919 -0.141,-0.25 -0.331,-0.438 -0.574,-0.566 -0.24,-0.128 -0.515,-0.193 -0.822,-0.193 -0.308,0 -0.582,0.065 -0.823,0.193 -0.242,0.128 -0.434,0.316 -0.574,0.566 -0.141,0.249 -0.212,0.557 -0.215,0.919 V 6.146 H 49.806 Z M 0,54.115 V 52.756 H -0.856 Z M 0,52.367 V 50.744 H -0.011 L -1.156,47.287 H 0 V 46.22 H -1.501 L -2.112,44.453 H -3.379 L -0.5,52.367 Z M -6.632,42.5 H 0 V 41.276 H -6.632 Z M 0,42.5 Z M -6.632,26.261 H 0 v -1.223 h -6.632 z m 6.632,0 z M -0.378,21.553 H 1e-5 V 13.639 H -0.378 Z m 0.378,0 z M -6.632,10.021 H 0 V 8.798 h -6.632 z m 6.632,0 z M 0,6.146 V 3.193 L -0.44,4.524 H -0.463 L -1.608,1.067 H 0 V 0 h -1.952 l -0.611,-1.768 h -1.268 l 2.879,7.914 z m -6.632,-7.89 v 7.89 h 1.149 v -7.914 h -1.134 z m 0,15.581 v 1.514 c 0.082,-0.106 0.181,-0.202 0.3,-0.289 0.119,-0.087 0.254,-0.156 0.408,-0.207 0.154,-0.055 0.326,-0.08 0.515,-0.082 0.189,0.002 0.361,0.027 0.515,0.082 0.154,0.051 0.291,0.12 0.407,0.207 0.119,0.087 0.219,0.183 0.301,0.289 l 0.16,0.232 c 0.047,0.076 0.084,0.164 0.116,0.264 0.029,0.101 0.055,0.225 0.072,0.373 0.018,0.15 0.031,0.335 0.041,0.557 0.007,0.224 0.011,0.497 0.011,0.819 0,0.323 -0.004,0.595 -0.011,0.819 -0.01,0.222 -0.023,0.409 -0.041,0.558 -0.017,0.148 -0.043,0.274 -0.072,0.372 -0.032,0.1 -0.069,0.189 -0.116,0.265 l -0.16,0.231 c -0.082,0.106 -0.182,0.202 -0.301,0.29 -0.116,0.087 -0.253,0.155 -0.407,0.209 -0.154,0.052 -0.326,0.078 -0.515,0.079 -0.189,-0.001 -0.361,-0.027 -0.515,-0.079 -0.154,-0.054 -0.289,-0.122 -0.408,-0.209 -0.119,-0.088 -0.218,-0.184 -0.3,-0.29 v 1.514 c 0.115,0.053 0.236,0.099 0.363,0.139 0.261,0.082 0.549,0.124 0.86,0.126 0.311,-0.002 0.598,-0.044 0.859,-0.126 0.262,-0.081 0.497,-0.191 0.706,-0.326 0.208,-0.137 0.389,-0.289 0.541,-0.458 0.154,-0.166 0.278,-0.339 0.372,-0.513 0.052,-0.091 0.097,-0.179 0.134,-0.267 0.039,-0.087 0.072,-0.188 0.098,-0.302 0.028,-0.115 0.048,-0.257 0.065,-0.429 0.016,-0.173 0.03,-0.387 0.037,-0.647 0.007,-0.259 0.011,-0.578 0.011,-0.956 0,-0.378 -0.004,-0.696 -0.011,-0.956 -0.007,-0.259 -0.021,-0.474 -0.037,-0.646 -0.017,-0.172 -0.037,-0.315 -0.065,-0.428 -0.026,-0.115 -0.059,-0.217 -0.098,-0.304 -0.037,-0.087 -0.082,-0.176 -0.134,-0.267 -0.094,-0.174 -0.218,-0.344 -0.372,-0.513 -0.152,-0.167 -0.333,-0.32 -0.541,-0.456 -0.209,-0.137 -0.444,-0.246 -0.706,-0.328 -0.261,-0.081 -0.548,-0.124 -0.859,-0.126 -0.311,0.002 -0.599,0.045 -0.86,0.126 -0.127,0.04 -0.248,0.086 -0.363,0.139 z m 0,16.976 v 1.067 h 1.156 l -1.145,3.457 h -0.011 v 1.623 h 0.5 l 2.879,-7.914 H -4.52 l -0.611,1.767 z m 0,15.455 v 2.349 l 2.434,-4.164 H -5.62 Z m 0,3.427 v 1.739 l 0.745,0.933 h 1.423 z m 0,1.739 v -1.739 l -0.366,-0.451 0.366,-0.627 v -2.349 l -1.145,2.053 -1.389,-1.456 v -2.412 h -1.2 v 7.914 h 1.2 v -4.08 h 0.022 z M -15.398,42.5 h 8.766 v -1.224 h -8.766 z m 8.766,0 z m 0,-5.54 V 35.337 H -6.643 L -7.788,31.88 h 1.156 v -1.067 h -1.5 l -0.612,-1.767 h -1.267 l 2.879,7.914 z m -8.766,-10.699 h 8.766 v -1.223 h -8.766 z m 8.766,0 z m 0,-4.906 V 19.841 L -6.793,19.61 c -0.045,-0.076 -0.083,-0.165 -0.115,-0.265 -0.03,-0.098 -0.054,-0.224 -0.072,-0.372 -0.019,-0.149 -0.031,-0.336 -0.041,-0.558 -0.007,-0.224 -0.011,-0.496 -0.011,-0.819 0,-0.322 0.004,-0.595 0.011,-0.819 0.01,-0.222 0.022,-0.407 0.041,-0.557 0.018,-0.148 0.042,-0.272 0.072,-0.373 0.032,-0.1 0.07,-0.188 0.115,-0.264 l 0.161,-0.232 v -1.514 c -0.121,0.056 -0.234,0.119 -0.341,0.189 -0.209,0.136 -0.391,0.289 -0.542,0.456 -0.154,0.169 -0.279,0.339 -0.373,0.513 -0.05,0.091 -0.096,0.18 -0.133,0.267 -0.039,0.087 -0.072,0.189 -0.098,0.304 -0.028,0.113 -0.048,0.256 -0.065,0.428 -0.017,0.172 -0.03,0.387 -0.037,0.646 -0.007,0.26 -0.011,0.578 -0.011,0.956 0,0.378 0.004,0.697 0.011,0.956 0.007,0.26 0.02,0.474 0.037,0.647 0.017,0.172 0.037,0.314 0.065,0.429 0.026,0.114 0.059,0.215 0.098,0.302 0.037,0.088 0.083,0.176 0.133,0.267 0.094,0.174 0.219,0.347 0.373,0.513 0.151,0.169 0.333,0.321 0.542,0.458 0.107,0.069 0.22,0.132 0.341,0.187 z m -8.766,-11.334 h 8.766 V 8.798 h -8.766 z m 8.766,0 z m 0,-3.875 v -7.89 l -3.564,5.601 h -0.022 v -5.625 h -1.201 v 7.914 h 1.134 l 3.579,-5.624 h 0.022 V 6.146 Z M -15.398,0 v 1.067 h 0.104 l -0.104,0.314 v 3.248 l 2.327,-6.397 h -1.267 L -14.949,0 Z m 0,13.639 v 7.914 h 0.156 l 3.579,-5.624 h 0.022 v 5.624 h 1.2 v -7.914 h -1.133 l -3.579,5.624 h -0.023 v -5.624 z m 0,15.407 v 7.914 h 0.422 v -6.781 h 3.857 v -1.133 z m 0,15.34 v 1.2 c 0.189,0.002 0.361,0.028 0.515,0.082 0.154,0.052 0.291,0.121 0.408,0.208 0.119,0.087 0.218,0.183 0.3,0.289 l 0.161,0.231 c 0.047,0.076 0.083,0.165 0.115,0.265 0.03,0.1 0.055,0.224 0.072,0.372 0.019,0.15 0.032,0.336 0.041,0.558 0.007,0.224 0.011,0.497 0.011,0.819 0,0.322 -0.004,0.594 -0.011,0.819 -0.009,0.222 -0.022,0.409 -0.041,0.557 -0.017,0.149 -0.042,0.274 -0.072,0.373 -0.032,0.1 -0.068,0.189 -0.115,0.265 l -0.161,0.231 c -0.082,0.106 -0.181,0.202 -0.3,0.289 -0.117,0.087 -0.254,0.156 -0.408,0.21 -0.154,0.051 -0.326,0.077 -0.515,0.079 v 1.201 c 0.312,-0.002 0.599,-0.045 0.86,-0.126 0.261,-0.082 0.496,-0.191 0.706,-0.327 0.207,-0.137 0.389,-0.288 0.54,-0.457 0.154,-0.167 0.279,-0.339 0.373,-0.513 0.052,-0.091 0.096,-0.18 0.133,-0.267 0.039,-0.087 0.072,-0.189 0.099,-0.302 0.027,-0.115 0.048,-0.257 0.064,-0.43 0.017,-0.172 0.03,-0.387 0.037,-0.646 0.008,-0.26 0.012,-0.578 0.012,-0.956 0,-0.378 -0.004,-0.697 -0.012,-0.956 -0.007,-0.259 -0.02,-0.474 -0.037,-0.646 -0.016,-0.173 -0.037,-0.316 -0.064,-0.429 -0.027,-0.115 -0.06,-0.216 -0.099,-0.303 -0.037,-0.087 -0.081,-0.176 -0.133,-0.267 -0.094,-0.174 -0.219,-0.345 -0.373,-0.513 -0.151,-0.167 -0.333,-0.321 -0.54,-0.456 -0.21,-0.137 -0.445,-0.246 -0.706,-0.328 -0.261,-0.081 -0.548,-0.124 -0.86,-0.126 z m 0,8.048 v -1.201 c -0.189,-0.002 -0.361,-0.028 -0.515,-0.079 -0.154,-0.054 -0.289,-0.123 -0.407,-0.21 -0.119,-0.087 -0.219,-0.183 -0.301,-0.289 l -0.16,-0.231 c -0.045,-0.076 -0.084,-0.165 -0.116,-0.265 -0.029,-0.099 -0.053,-0.224 -0.072,-0.373 -0.018,-0.148 -0.031,-0.335 -0.04,-0.557 -0.008,-0.225 -0.012,-0.497 -0.012,-0.819 0,-0.322 0.004,-0.595 0.012,-0.819 0.009,-0.222 0.022,-0.408 0.04,-0.558 0.019,-0.148 0.043,-0.272 0.072,-0.372 0.032,-0.1 0.071,-0.189 0.116,-0.265 l 0.16,-0.231 c 0.082,-0.106 0.182,-0.202 0.301,-0.289 0.118,-0.087 0.253,-0.156 0.407,-0.208 0.154,-0.054 0.326,-0.08 0.515,-0.082 v -1.2 c -0.311,0.002 -0.598,0.045 -0.859,0.126 -0.261,0.082 -0.497,0.191 -0.704,0.328 -0.21,0.135 -0.391,0.289 -0.543,0.456 -0.154,0.168 -0.278,0.339 -0.372,0.513 -0.051,0.091 -0.097,0.18 -0.134,0.267 -0.039,0.087 -0.072,0.188 -0.098,0.303 -0.028,0.113 -0.048,0.256 -0.065,0.429 -0.016,0.172 -0.03,0.387 -0.037,0.646 -0.007,0.259 -0.011,0.578 -0.011,0.956 0,0.378 0.004,0.696 0.011,0.956 0.007,0.259 0.021,0.474 0.037,0.646 0.017,0.173 0.037,0.315 0.065,0.43 0.026,0.113 0.059,0.215 0.098,0.302 0.037,0.087 0.083,0.176 0.134,0.267 0.094,0.174 0.218,0.346 0.372,0.513 0.152,0.169 0.333,0.32 0.543,0.457 0.207,0.136 0.443,0.245 0.704,0.327 0.261,0.081 0.548,0.124 0.859,0.126 z M -21.207,42.5 h 5.809 v -1.224 h -5.809 z m 5.809,0 z m -0.778,-5.54 h 0.778 v -7.914 h -0.778 z m 0.778,0 z m -5.809,-10.699 h 5.809 v -1.223 h -5.809 z m 5.809,0 z m -0.978,-4.708 h 0.978 v -7.914 h -0.978 z m 0.978,0 z m -5.809,-11.532 h 5.809 V 8.798 h -5.809 z m 5.809,0 z m 0,-5.392 V 1.381 l -1.041,3.143 h -0.022 l -1.145,-3.457 h 2.208 V 0 h -2.552 l -0.612,-1.768 h -1.267 l 2.879,7.914 h 1 z m -5.809,8.95 v 1.206 c 0.112,0.012 0.217,0.035 0.315,0.07 0.154,0.051 0.291,0.12 0.407,0.207 0.119,0.087 0.219,0.183 0.3,0.289 l 0.161,0.232 c 0.047,0.076 0.084,0.164 0.115,0.264 0.03,0.101 0.056,0.225 0.072,0.373 0.019,0.15 0.032,0.335 0.041,0.557 0.008,0.224 0.012,0.497 0.012,0.819 0,0.323 -0.004,0.595 -0.012,0.819 -0.009,0.222 -0.022,0.409 -0.041,0.558 -0.016,0.148 -0.042,0.274 -0.072,0.372 -0.031,0.1 -0.068,0.189 -0.115,0.265 l -0.161,0.231 c -0.081,0.106 -0.181,0.202 -0.3,0.29 -0.116,0.087 -0.253,0.155 -0.407,0.209 -0.098,0.033 -0.203,0.055 -0.315,0.068 v 1.205 c 0.235,-0.015 0.455,-0.055 0.659,-0.119 0.262,-0.081 0.497,-0.191 0.706,-0.326 0.208,-0.137 0.389,-0.289 0.541,-0.458 0.154,-0.166 0.278,-0.339 0.373,-0.513 0.051,-0.091 0.096,-0.179 0.133,-0.267 0.039,-0.087 0.072,-0.188 0.098,-0.302 0.028,-0.115 0.048,-0.257 0.065,-0.429 0.017,-0.173 0.029,-0.387 0.037,-0.647 0.007,-0.259 0.011,-0.578 0.011,-0.956 0,-0.378 -0.004,-0.696 -0.011,-0.956 -0.008,-0.259 -0.02,-0.474 -0.037,-0.646 -0.017,-0.172 -0.037,-0.315 -0.065,-0.428 -0.026,-0.115 -0.059,-0.217 -0.098,-0.304 -0.037,-0.087 -0.082,-0.176 -0.133,-0.267 -0.095,-0.174 -0.219,-0.344 -0.373,-0.513 -0.152,-0.167 -0.333,-0.32 -0.541,-0.456 -0.209,-0.137 -0.444,-0.246 -0.706,-0.328 -0.204,-0.063 -0.424,-0.103 -0.659,-0.119 z m 0,15.4 v 1.2 c 0.189,0.003 0.361,0.028 0.515,0.083 0.153,0.051 0.291,0.12 0.407,0.207 0.119,0.087 0.219,0.183 0.3,0.289 l 0.162,0.232 c 0.046,0.075 0.083,0.164 0.114,0.264 0.03,0.1 0.056,0.225 0.073,0.373 0.018,0.15 0.031,0.335 0.04,0.557 0.008,0.224 0.011,0.497 0.011,0.819 0,0.322 -0.003,0.595 -0.011,0.819 -0.009,0.222 -0.022,0.409 -0.04,0.557 -0.017,0.149 -0.043,0.274 -0.073,0.373 -0.031,0.1 -0.068,0.189 -0.114,0.265 l -0.162,0.231 c -0.081,0.105 -0.181,0.202 -0.3,0.289 -0.116,0.087 -0.254,0.156 -0.407,0.21 -0.154,0.051 -0.326,0.078 -0.515,0.079 v 1.201 c 0.311,-0.002 0.598,-0.045 0.859,-0.126 0.261,-0.082 0.497,-0.191 0.706,-0.326 0.208,-0.137 0.389,-0.289 0.541,-0.458 0.154,-0.166 0.278,-0.339 0.372,-0.513 0.052,-0.091 0.097,-0.179 0.134,-0.267 0.039,-0.087 0.072,-0.189 0.098,-0.302 0.028,-0.115 0.048,-0.257 0.065,-0.43 0.016,-0.172 0.03,-0.387 0.037,-0.646 0.007,-0.259 0.011,-0.578 0.011,-0.956 0,-0.378 -0.004,-0.696 -0.011,-0.956 -0.007,-0.259 -0.021,-0.474 -0.037,-0.646 -0.017,-0.173 -0.037,-0.315 -0.065,-0.429 -0.026,-0.114 -0.059,-0.216 -0.098,-0.303 -0.037,-0.087 -0.082,-0.176 -0.134,-0.267 -0.094,-0.174 -0.218,-0.344 -0.372,-0.513 -0.152,-0.167 -0.333,-0.321 -0.541,-0.456 -0.209,-0.137 -0.445,-0.246 -0.706,-0.328 -0.261,-0.081 -0.548,-0.124 -0.859,-0.126 z m 0,15.738 v 3.956 c 0.259,-0.137 0.476,-0.307 0.648,-0.51 0.18,-0.207 0.311,-0.439 0.398,-0.691 0.09,-0.251 0.132,-0.513 0.132,-0.785 -0.002,-0.487 -0.117,-0.902 -0.343,-1.243 -0.202,-0.308 -0.48,-0.55 -0.835,-0.727 z m 0,6.068 v 1.327 l 0.176,-0.075 c 0.272,-0.124 0.528,-0.265 0.769,-0.426 l -0.668,-0.989 c -0.09,0.058 -0.183,0.112 -0.277,0.163 z m -14.731,-6.332 h 0.167 l 2.612,7.914 h -1.268 l -1.511,-5.058 z m 14.731,7.659 v -1.327 c -0.209,0.112 -0.427,0.204 -0.654,0.28 -0.332,0.111 -0.672,0.166 -1.025,0.168 -0.246,0 -0.47,-0.041 -0.668,-0.126 -0.198,-0.083 -0.358,-0.209 -0.475,-0.378 -0.116,-0.169 -0.177,-0.377 -0.179,-0.63 -0.002,-0.15 0.037,-0.294 0.113,-0.431 0.076,-0.139 0.198,-0.26 0.363,-0.361 0.165,-0.104 0.381,-0.176 0.646,-0.219 0.106,-0.017 0.234,-0.035 0.382,-0.058 0.15,-0.02 0.319,-0.042 0.508,-0.064 0.368,-0.047 0.691,-0.139 0.963,-0.28 l 0.026,-0.013 v -3.956 l -0.124,-0.059 c -0.415,-0.179 -0.906,-0.27 -1.477,-0.272 -0.583,0 -1.13,0.089 -1.635,0.271 -0.508,0.179 -0.969,0.452 -1.388,0.819 l 0.789,0.9 c 0.202,-0.159 0.421,-0.3 0.662,-0.417 0.239,-0.119 0.492,-0.209 0.759,-0.274 0.267,-0.065 0.543,-0.099 0.824,-0.099 0.328,0.002 0.608,0.049 0.841,0.14 0.234,0.092 0.413,0.22 0.538,0.385 0.124,0.163 0.187,0.355 0.189,0.576 0,0.187 -0.036,0.354 -0.11,0.504 -0.074,0.15 -0.187,0.272 -0.34,0.371 -0.152,0.098 -0.347,0.16 -0.584,0.192 -0.116,0.015 -0.23,0.03 -0.337,0.045 -0.107,0.015 -0.219,0.031 -0.334,0.048 -0.113,0.017 -0.239,0.033 -0.374,0.051 -0.456,0.067 -0.841,0.202 -1.152,0.406 -0.311,0.206 -0.548,0.463 -0.708,0.775 -0.159,0.311 -0.24,0.659 -0.24,1.043 0,0.341 0.059,0.652 0.173,0.933 0.114,0.282 0.282,0.526 0.502,0.732 0.223,0.206 0.491,0.363 0.81,0.476 0.321,0.113 0.684,0.169 1.093,0.171 0.326,-0.002 0.639,-0.037 0.939,-0.108 0.238,-0.055 0.465,-0.127 0.684,-0.214 z M -35.938,42.5 h 14.731 v -1.224 h -14.731 z m 14.731,0 z m 0,-5.473 v -1.201 c -0.189,-10e-4 -0.361,-0.028 -0.515,-0.079 -0.154,-0.054 -0.29,-0.123 -0.408,-0.21 -0.118,-0.087 -0.218,-0.184 -0.3,-0.289 l -0.161,-0.231 c -0.045,-0.076 -0.083,-0.165 -0.115,-0.265 -0.029,-0.099 -0.054,-0.224 -0.073,-0.373 -0.018,-0.148 -0.031,-0.335 -0.04,-0.557 -0.007,-0.224 -0.011,-0.497 -0.011,-0.819 0,-0.322 0.004,-0.595 0.011,-0.819 0.009,-0.222 0.022,-0.407 0.04,-0.557 0.019,-0.148 0.044,-0.273 0.073,-0.373 0.032,-0.1 0.07,-0.189 0.115,-0.264 l 0.161,-0.232 c 0.082,-0.106 0.182,-0.202 0.3,-0.289 0.118,-0.087 0.254,-0.156 0.408,-0.207 0.154,-0.055 0.326,-0.08 0.515,-0.083 v -1.2 c -0.311,0.002 -0.599,0.045 -0.86,0.126 -0.261,0.082 -0.496,0.191 -0.704,0.328 -0.209,0.135 -0.391,0.289 -0.543,0.456 -0.153,0.169 -0.277,0.339 -0.372,0.513 -0.05,0.091 -0.096,0.18 -0.133,0.267 -0.039,0.087 -0.072,0.189 -0.099,0.303 -0.027,0.114 -0.048,0.256 -0.064,0.429 -0.017,0.172 -0.03,0.387 -0.038,0.646 -0.007,0.26 -0.01,0.578 -0.01,0.956 0,0.378 0.003,0.697 0.01,0.956 0.008,0.259 0.021,0.474 0.038,0.646 0.016,0.173 0.037,0.315 0.064,0.43 0.027,0.113 0.06,0.215 0.099,0.302 0.037,0.088 0.083,0.176 0.133,0.267 0.095,0.174 0.219,0.347 0.372,0.513 0.152,0.169 0.334,0.321 0.543,0.458 0.208,0.135 0.443,0.244 0.704,0.326 0.261,0.081 0.549,0.124 0.86,0.126 z M -35.938,26.261 h 14.731 v -1.223 h -14.731 z m 14.731,0 z m 0,-4.648 v -1.205 l -0.2,0.011 c -0.189,-0.001 -0.361,-0.027 -0.515,-0.079 -0.154,-0.054 -0.289,-0.122 -0.408,-0.209 -0.118,-0.088 -0.218,-0.184 -0.3,-0.29 l -0.161,-0.231 c -0.045,-0.076 -0.084,-0.165 -0.115,-0.265 -0.029,-0.098 -0.054,-0.224 -0.072,-0.372 -0.019,-0.149 -0.032,-0.336 -0.041,-0.558 -0.007,-0.224 -0.011,-0.496 -0.011,-0.819 0,-0.322 0.004,-0.595 0.011,-0.819 0.009,-0.222 0.022,-0.407 0.041,-0.557 0.018,-0.148 0.043,-0.272 0.072,-0.373 0.031,-0.1 0.07,-0.188 0.115,-0.264 l 0.161,-0.232 c 0.082,-0.106 0.182,-0.202 0.3,-0.289 0.119,-0.087 0.254,-0.156 0.408,-0.207 0.154,-0.055 0.326,-0.08 0.515,-0.082 l 0.2,0.012 v -1.206 l -0.2,-0.007 c -0.312,0.002 -0.599,0.045 -0.86,0.126 -0.261,0.082 -0.497,0.191 -0.704,0.328 -0.209,0.136 -0.391,0.289 -0.543,0.456 -0.153,0.169 -0.278,0.339 -0.372,0.513 -0.05,0.091 -0.096,0.18 -0.134,0.267 -0.038,0.087 -0.072,0.189 -0.098,0.304 -0.028,0.113 -0.048,0.256 -0.065,0.428 -0.016,0.172 -0.029,0.387 -0.036,0.646 -0.008,0.26 -0.012,0.578 -0.012,0.956 0,0.378 0.004,0.697 0.012,0.956 0.007,0.26 0.02,0.474 0.036,0.647 0.017,0.172 0.037,0.314 0.065,0.429 0.026,0.114 0.06,0.215 0.098,0.302 0.038,0.088 0.084,0.176 0.134,0.267 0.094,0.174 0.219,0.347 0.372,0.513 0.152,0.169 0.334,0.321 0.543,0.458 0.207,0.135 0.443,0.245 0.704,0.326 0.261,0.082 0.548,0.124 0.86,0.126 z M -35.938,10.021 h 14.731 V 8.798 h -14.731 z m 14.731,0 z M -35.938,0 v 1.067 h 1.156 l -1.145,3.457 h -0.011 v 1.622 h 0.5 l 2.879,-7.914 h -1.268 L -34.438,0 Z m 2.501,13.639 h -2.501 v 1.134 h 2.501 z m -2.501,0 z m 1.934,3.457 h -1.934 v 1.067 h 1.934 z m -1.934,0 z m 2.501,3.323 h -2.501 v 1.134 h 2.501 z m -2.501,0 z m 0,8.566 v 1.203 c 0.239,0.016 0.448,0.06 0.63,0.131 0.233,0.093 0.413,0.22 0.537,0.385 0.124,0.163 0.187,0.355 0.189,0.576 0,0.188 -0.035,0.354 -0.109,0.504 -0.074,0.15 -0.188,0.273 -0.341,0.37 -0.153,0.099 -0.347,0.162 -0.584,0.193 -0.111,0.014 -0.219,0.028 -0.322,0.042 v 1.219 c 0.119,-0.016 0.248,-0.033 0.389,-0.049 0.368,-0.047 0.691,-0.139 0.963,-0.28 0.271,-0.139 0.497,-0.313 0.674,-0.522 0.18,-0.208 0.312,-0.439 0.399,-0.691 0.089,-0.252 0.131,-0.514 0.131,-0.786 -0.001,-0.487 -0.116,-0.902 -0.342,-1.243 -0.226,-0.342 -0.545,-0.604 -0.96,-0.786 -0.36,-0.155 -0.777,-0.244 -1.254,-0.266 z m 0,6.827 v 1.207 c 0.239,-0.014 0.47,-0.047 0.694,-0.1 0.303,-0.07 0.588,-0.166 0.86,-0.289 0.272,-0.124 0.528,-0.265 0.769,-0.426 l -0.667,-0.989 c -0.291,0.187 -0.602,0.333 -0.932,0.443 -0.236,0.079 -0.477,0.13 -0.724,0.154 z m 0,1.537 v 0.924 l 0.545,0.699 h 1.067 l -1.178,-1.623 z m 5.809,7.104 h 1.134 v 3.257 l 2.379,4.657 h -1.267 l -1.679,-3.513 -1.678,3.513 h -1.267 l 2.378,-4.657 z m -1.178,-15.407 h 1.201 v 2.412 l 1.389,1.456 2.156,-3.868 h 1.423 l -2.801,4.791 2.534,3.123 h -1.423 l -3.256,-4.079 h -0.022 v 4.079 h -1.201 z m -0.2,-15.407 h 1.2 v 2.412 l 1.39,1.456 2.156,-3.868 h 1.423 l -2.801,4.791 2.534,3.123 h -1.423 l -3.256,-4.079 h -0.023 v 4.079 h -1.2 z m 3.268,-15.407 h 1.2 v 4.935 h 0.023 l 1.656,-3.801 h 1 l 1.656,3.801 h 0.023 v -4.935 h 1.2 v 7.914 h -1.134 l -2.223,-5.157 -2.267,5.157 h -1.134 z m -8.466,46.221 h 0.767 v 2.856 l -0.289,-0.967 h -0.022 l -1.801,6.025 h -1.267 z M -39.368,42.5 h 3.43 v -1.224 h -3.43 z m 3.43,0 z m 0,-4.227 v -0.924 h -0.834 l -1.178,1.623 h 1.067 l 0.745,-0.956 z m 0,-1.254 v -1.207 c -0.099,0.009 -0.199,0.014 -0.301,0.014 -0.246,0 -0.47,-0.04 -0.668,-0.126 -0.198,-0.083 -0.358,-0.209 -0.474,-0.378 -0.117,-0.168 -0.178,-0.377 -0.18,-0.63 -0.002,-0.15 0.037,-0.294 0.113,-0.431 0.076,-0.139 0.198,-0.26 0.363,-0.361 0.165,-0.104 0.382,-0.176 0.647,-0.219 0.105,-0.017 0.233,-0.035 0.381,-0.057 l 0.119,-0.016 v -1.219 l -0.015,0.003 c -0.107,0.015 -0.218,0.031 -0.333,0.048 -0.113,0.017 -0.239,0.033 -0.375,0.052 -0.456,0.066 -0.841,0.202 -1.152,0.406 -0.311,0.205 -0.548,0.463 -0.708,0.774 -0.159,0.311 -0.241,0.659 -0.241,1.043 0,0.341 0.06,0.652 0.175,0.934 0.113,0.281 0.281,0.526 0.502,0.731 0.222,0.206 0.491,0.363 0.809,0.477 0.321,0.112 0.684,0.168 1.093,0.17 z m 0,-6.831 v -1.203 l -0.223,-0.006 c -0.583,0 -1.13,0.089 -1.635,0.271 -0.508,0.179 -0.969,0.452 -1.388,0.819 l 0.79,0.9 c 0.201,-0.159 0.42,-0.3 0.661,-0.417 0.239,-0.118 0.492,-0.209 0.759,-0.274 0.267,-0.065 0.543,-0.099 0.824,-0.099 z m -3.43,-3.927 h 3.43 v -1.223 h -3.43 z m 3.43,0 z m 0,-4.708 v -1.134 h -1.356 v -2.256 h 1.356 v -1.067 h -1.356 v -2.323 h 1.356 v -1.134 h -2.556 v 7.914 z m -3.43,-11.532 h 3.43 V 8.798 h -3.43 z m 3.43,0 z m 0,-3.875 V 4.524 h -0.011 l -1.145,-3.457 h 1.156 V 0 h -1.501 l -0.611,-1.768 h -1.267 l 2.879,7.914 h 0.5"
             style="fill:rgba(242, 242, 242, 0.7);fill-opacity:1;fill-rule:nonzero;stroke:none"
             id="path4620" /></g></g></g><g
       id="g4622"><g
         id="g4624"
         clip-path="url(#clipPath4628)"><text
           transform="matrix(1,0,0,-1,221.5932,355.1508)"
           style="font-variant:normal;font-weight:500;font-size:7px;font-family:DINCE;-inkscape-font-specification:DINCE-Medium;writing-mode:lr-tb;fill:#231f20;fill-opacity:1;fill-rule:nonzero;stroke:none"
           id="text4632"><tspan
             x="0"
             y="0"
             id="tspan4630">1</tspan></text></g></g><g
       id="g4634"><g
         id="g4636"
         clip-path="url(#clipPath4640)"><text
           transform="matrix(1,0,0,-1,228.4092,261.1258)"
           style="font-variant:normal;font-weight:500;font-size:7px;font-family:DINCE;-inkscape-font-specification:DINCE-Medium;writing-mode:lr-tb;fill:#231f20;fill-opacity:1;fill-rule:nonzero;stroke:none"
           id="text4644"><tspan
             x="0"
             y="0"
             id="tspan4642">(</tspan></text></g></g><text
       transform="matrix(1,0,0,-1,230.6281,261.1258)"
       style="font-variant:normal;font-weight:500;font-size:7px;font-family:DINCE;-inkscape-font-specification:DINCE-Medium;writing-mode:lr-tb;fill:#231f20;fill-opacity:1;fill-rule:nonzero;stroke:none"
       id="text4648"><tspan
         x="0 3.493 6.7690001 12.908 16.778999 20.538"
         y="0"
         sodipodi:role="line"
         id="tspan4646">symbol</tspan></text><g
       id="g4650"><g
         id="g4652"
         clip-path="url(#clipPath4656)"><text
           transform="matrix(1,0,0,-1,253.3427,261.1258)"
           style="font-variant:normal;font-weight:500;font-size:7px;font-family:DINCE;-inkscape-font-specification:DINCE-Medium;writing-mode:lr-tb;fill:#231f20;fill-opacity:1;fill-rule:nonzero;stroke:none"
           id="text4660"><tspan
             x="0"
             y="0"
             id="tspan4658">)</tspan></text></g></g><g
       id="g4662"><g
         id="g4664"
         clip-path="url(#clipPath4668)"><text
           transform="matrix(1,0,0,-1,377.8812,261.1258)"
           style="font-variant:normal;font-weight:500;font-size:7px;font-family:DINCE;-inkscape-font-specification:DINCE-Medium;writing-mode:lr-tb;fill:#231f20;fill-opacity:1;fill-rule:nonzero;stroke:none"
           id="text4672"><tspan
             x="0"
             y="0"
             id="tspan4670">(</tspan></text></g></g><text
       transform="matrix(1,0,0,-1,380.1001,261.1258)"
       style="font-variant:normal;font-weight:500;font-size:7px;font-family:DINCE;-inkscape-font-specification:DINCE-Medium;writing-mode:lr-tb;fill:#231f20;fill-opacity:1;fill-rule:nonzero;stroke:none"
       id="text4676"><tspan
         x="0 3.283 7.119 10.122 13.832 16.226 20.062"
         y="0"
         sodipodi:role="line"
         id="tspan4674">zkratka</tspan></text><g
       id="g4678"><g
         id="g4680"
         clip-path="url(#clipPath4684)"><text
           transform="matrix(1,0,0,-1,403.8719,261.1258)"
           style="font-variant:normal;font-weight:500;font-size:7px;font-family:DINCE;-inkscape-font-specification:DINCE-Medium;writing-mode:lr-tb;fill:#231f20;fill-opacity:1;fill-rule:nonzero;stroke:none"
           id="text4688"><tspan
             x="0"
             y="0"
             id="tspan4686">)</tspan></text></g></g><g
       id="g4690"><g
         id="g4692"
         clip-path="url(#clipPath4696)"><text
           transform="matrix(1,0,0,-1,561.6312,261.1258)"
           style="font-variant:normal;font-weight:500;font-size:7px;font-family:DINCE;-inkscape-font-specification:DINCE-Medium;writing-mode:lr-tb;fill:#231f20;fill-opacity:1;fill-rule:nonzero;stroke:none"
           id="text4700"><tspan
             x="0"
             y="0"
             id="tspan4698">(</tspan></text></g></g><text
       transform="matrix(1,0,0,-1,563.8501,261.1258)"
       style="font-variant:normal;font-weight:500;font-size:7px;font-family:DINCE;-inkscape-font-specification:DINCE-Medium;writing-mode:lr-tb;fill:#231f20;fill-opacity:1;fill-rule:nonzero;stroke:none"
       id="text4704"><tspan
         x="0 2.3778999 6.1348 9.6396999"
         y="0"
         sodipodi:role="line"
         id="tspan4702">text</tspan></text><g
       id="g4706"><g
         id="g4708"
         clip-path="url(#clipPath4712)"><text
           transform="matrix(1,0,0,-1,575.869,261.1258)"
           style="font-variant:normal;font-weight:500;font-size:7px;font-family:DINCE;-inkscape-font-specification:DINCE-Medium;writing-mode:lr-tb;fill:#231f20;fill-opacity:1;fill-rule:nonzero;stroke:none"
           id="text4716"><tspan
             x="0"
             y="0"
             id="tspan4714">)</tspan></text></g></g><g
       id="g4718"><g
         id="g4720"
         clip-path="url(#clipPath4724)"><text
           transform="matrix(1,0,0,-1,221.5932,220.7328)"
           style="font-variant:normal;font-weight:500;font-size:7px;font-family:DINCE;-inkscape-font-specification:DINCE-Medium;writing-mode:lr-tb;fill:#231f20;fill-opacity:1;fill-rule:nonzero;stroke:none"
           id="text4728"><tspan
             x="0"
             y="0"
             id="tspan4726">2</tspan></text></g></g></g></svg>
