<svg width="72" height="72" viewBox="0 0 72 72" fill="none" xmlns="http://www.w3.org/2000/svg">
<path fill-rule="evenodd" clip-rule="evenodd" d="M36.01 71.6288C55.6135 71.6288 71.5053 55.737 71.5053 36.1335C71.5053 16.53 55.6135 0.638184 36.01 0.638184C16.4064 0.638184 0.514648 16.53 0.514648 36.1335C0.514648 55.737 16.4064 71.6288 36.01 71.6288ZM56.6619 22.9751C58.0481 24.3613 58.0481 26.6087 56.6619 27.9949L33.59 51.0668C32.2038 52.453 29.9563 52.453 28.5702 51.0668C28.5477 51.0444 28.5256 51.0217 28.5039 50.9988L15.7526 38.2475C14.3664 36.8613 14.3664 34.6139 15.7526 33.2277C17.1388 31.8415 19.3862 31.8415 20.7724 33.2277L31.0809 43.5363L51.6421 22.9751C53.0283 21.5889 55.2757 21.5889 56.6619 22.9751Z" fill="url(#paint0_linear_71_1529)"/>
<defs>
<linearGradient id="paint0_linear_71_1529" x1="0.514648" y1="0.638184" x2="76.1709" y2="6.01819" gradientUnits="userSpaceOnUse">
<stop stop-color="#C89405"/>
<stop offset="1" stop-color="#DFC16F"/>
</linearGradient>
</defs>
</svg>
