<svg width="74" height="74" viewBox="0 0 74 74" fill="none" xmlns="http://www.w3.org/2000/svg">
<path d="M33.5731 2.3419C34.757 -0.780635 39.2373 -0.780635 40.4249 2.3419L48.0833 23.5559C48.3504 24.247 48.8209 24.8408 49.4326 25.2589C50.0442 25.677 50.7683 25.8998 51.5092 25.8978H70.3295C73.8072 25.8978 75.3241 30.2265 72.59 32.3464L59.1971 44.3963C58.5972 44.8575 58.1588 45.4969 57.9448 46.2227C57.7307 46.9485 57.7521 47.7234 58.0058 48.4364L62.8968 69.1657C64.0881 72.4954 60.2331 75.3553 57.3177 73.3057L39.1263 61.7626C38.5033 61.3248 37.7604 61.0899 36.999 61.0899C36.2376 61.0899 35.4947 61.3248 34.8717 61.7626L16.6803 73.3057C13.7686 75.3553 9.90986 72.4917 11.1012 69.1657L15.9922 48.4364C16.2459 47.7234 16.2673 46.9485 16.0532 46.2227C15.8392 45.4969 15.4008 44.8575 14.8009 44.3963L1.40797 32.3464C-1.3298 30.2265 0.194474 25.8978 3.66478 25.8978H22.4851C23.2261 25.9003 23.9504 25.6777 24.5622 25.2595C25.1739 24.8414 25.6443 24.2473 25.911 23.5559L33.5694 2.3419H33.5731Z" fill="url(#paint0_linear_71_1678)"/>
<defs>
<linearGradient id="paint0_linear_71_1678" x1="0" y1="0" x2="78.8603" y2="5.60801" gradientUnits="userSpaceOnUse">
<stop stop-color="#C89405"/>
<stop offset="1" stop-color="#DFC16F"/>
</linearGradient>
</defs>
</svg>
