<svg width="1902" height="309" viewBox="0 0 1902 309" fill="none" xmlns="http://www.w3.org/2000/svg">
<path d="M86.2964 259H134.383V40.759H220.2V0.0699866H0.4796V40.759H86.2964V259ZM447.075 259H503.3L387.891 115.849L496.641 0.0699866H442.636L314.651 132.864V0.0699866H266.564V259H314.651V192.788L355.709 150.619L447.075 259ZM1871.31 261.589C1887.96 261.589 1901.64 248.643 1901.64 230.888C1901.64 212.393 1887.96 200.186 1871.31 200.186C1854.67 200.186 1840.98 212.393 1840.98 230.888C1840.98 248.643 1854.67 261.589 1871.31 261.589Z" fill="#D6AD3E"/>
<path d="M697.482 127.069C675.288 127.069 657.04 136.44 647.176 151.236C638.545 134.96 621.776 127.069 601.802 127.069C582.073 127.069 566.045 134.467 556.674 147.783V128.302H533.986V259H557.66V191.678C557.66 163.319 573.196 148.277 596.869 148.277C618.324 148.277 630.654 160.853 630.654 186.5V259H654.327V191.678C654.327 163.319 669.863 148.277 693.537 148.277C714.991 148.277 727.321 160.853 727.321 186.5V259H750.995V183.787C750.995 145.317 729.294 127.069 697.482 127.069ZM842.148 127.069C821.187 127.069 801.705 132.987 788.142 143.838L798.006 161.593C808.117 152.962 823.899 147.537 839.435 147.537C862.862 147.537 874.452 159.127 874.452 179.102V183.787H836.969C798.006 183.787 784.443 201.049 784.443 222.01C784.443 244.697 803.185 260.48 832.777 260.48C853.245 260.48 867.794 253.575 875.685 241.738V259H898.126V180.088C898.126 144.331 877.905 127.069 842.148 127.069ZM836.723 242.231C818.721 242.231 807.87 234.093 807.87 221.024C807.87 209.927 814.529 200.802 837.956 200.802H874.452V219.051C868.534 234.093 854.478 242.231 836.723 242.231ZM964.623 150.249V128.302H941.936V259H965.61V193.898C965.61 165.292 981.392 149.756 1006.79 149.756C1008.52 149.756 1010.24 149.756 1012.22 150.003V127.069C989.283 127.069 973.008 134.96 964.623 150.249ZM1141.27 259H1170.37L1109.95 182.307L1164.94 128.302H1136.34L1065.07 193.404V76.0228H1041.39V259H1065.07V223.243L1092.19 198.09L1141.27 259ZM1305.94 194.391C1305.94 154.195 1279.06 127.069 1241.33 127.069C1203.6 127.069 1175.73 154.935 1175.73 193.651C1175.73 232.614 1203.84 260.48 1246.01 260.48C1267.71 260.48 1285.71 253.082 1297.55 239.272L1284.48 223.983C1274.86 234.587 1262.04 239.765 1246.75 239.765C1220.86 239.765 1202.36 224.476 1199.4 201.542H1305.44C1305.69 199.323 1305.94 196.364 1305.94 194.391ZM1241.33 147.044C1264.26 147.044 1280.78 162.579 1283.25 184.527H1199.4C1201.87 162.333 1218.64 147.044 1241.33 147.044ZM1404.9 234.34C1399.96 238.286 1393.31 240.505 1386.4 240.505C1373.33 240.505 1365.93 232.614 1365.93 218.558V147.783H1403.42V128.302H1365.93V99.6964H1342.26V128.302H1320.07V147.783H1342.26V219.544C1342.26 245.93 1357.3 260.48 1383.69 260.48C1394.29 260.48 1405.14 257.52 1412.29 251.355L1404.9 234.34ZM1452.75 103.149C1462.12 103.149 1468.78 96.244 1468.78 87.3664C1468.78 78.982 1461.88 72.3238 1452.75 72.3238C1443.63 72.3238 1436.72 79.2286 1436.72 87.8596C1436.72 96.4906 1443.63 103.149 1452.75 103.149ZM1440.92 259H1464.59V128.302H1440.92V259ZM1579.58 127.069C1558.86 127.069 1542.09 134.714 1532.48 148.03V128.302H1509.79V259H1533.46V191.678C1533.46 163.319 1549.74 148.277 1574.89 148.277C1597.33 148.277 1610.16 160.853 1610.16 186.5V259H1633.83V183.787C1633.83 145.317 1611.39 127.069 1579.58 127.069ZM1780.95 128.302V148.523C1769.85 134.22 1752.1 127.069 1732.62 127.069C1694.89 127.069 1666.28 152.469 1666.28 190.199C1666.28 227.928 1694.89 253.575 1732.62 253.575C1751.36 253.575 1768.37 246.917 1779.72 233.354V243.711C1779.72 273.303 1765.66 287.606 1734.84 287.606C1715.6 287.606 1696.61 280.947 1684.53 270.59L1673.19 288.839C1687.49 301.662 1711.66 308.32 1735.58 308.32C1779.96 308.32 1803.39 287.359 1803.39 241.245V128.302H1780.95ZM1735.33 232.86C1708.94 232.86 1690.2 215.352 1690.2 190.199C1690.2 164.799 1708.94 147.783 1735.33 147.783C1761.47 147.783 1780.21 164.799 1780.21 190.199C1780.21 215.352 1761.47 232.86 1735.33 232.86Z" fill="white"/>
</svg>
